<svg width="278" height="193" viewBox="0 0 278 193" fill="none" xmlns="http://www.w3.org/2000/svg">
<path d="M158.453 60.3802C170.343 52.5937 184.442 100.583 198.656 100.583C212.864 100.583 225.151 52.9271 238.854 60.3802C249.557 66.2083 202.911 101.964 221.989 121.036C231.573 130.62 280.109 135.995 277.093 147.505C273.479 161.25 229.656 141.052 220.406 151.839C211.145 162.63 229.849 185.776 216.812 191.438C202.177 197.786 198.583 163.641 192.984 136.62C186.453 105.146 147.052 67.8437 158.453 60.3802Z" fill="#696CFF"/>
<path d="M198.656 93.75C193.01 93.75 188.432 88.4323 188.432 81.875C188.432 75.3177 193.01 70 198.656 70C204.302 70 208.875 75.3177 208.875 81.875C208.875 88.4323 204.302 93.75 198.656 93.75Z" fill="#696CFF"/>
<path d="M129.583 82.5313C140.265 83.1042 127.448 118.5 136.078 124.833C144.703 131.167 173.38 107.714 178.375 118.339C182.281 126.646 138.047 127.568 141.125 147.635C142.677 157.724 169.739 182.604 162.781 188.24C154.468 194.979 136.864 163.203 126.448 165.625C116.026 168.052 117.062 190.427 106.63 188.057C94.9215 185.391 107.953 163.068 116.583 144.177C126.64 122.172 119.343 81.9844 129.583 82.5313Z" fill="#696CFF"/>
<path d="M139.119 120.688C135.692 118.172 135.281 112.906 138.203 108.927C141.125 104.948 146.27 103.76 149.698 106.271C153.119 108.786 153.531 114.052 150.609 118.031C147.692 122.01 142.546 123.198 139.119 120.688Z" fill="#696CFF"/>
<path d="M118.776 60.3802C106.885 52.5937 92.7861 100.583 78.5726 100.583C64.3591 100.583 52.0726 52.9271 38.3747 60.3802C27.6664 66.2083 74.3122 101.964 55.2393 121.036C45.6559 130.62 -2.88573 135.995 0.135101 147.505C3.74448 161.25 47.5674 141.052 56.8226 151.839C66.0778 162.63 47.3799 185.776 60.4164 191.438C75.0518 197.786 78.6455 163.641 84.2445 136.62C90.7757 105.146 130.172 67.849 118.776 60.3802Z" fill="#696CFF"/>
<path d="M78.5726 93.75C84.2184 93.75 88.7966 88.4323 88.7966 81.875C88.7966 75.3177 84.2184 70 78.5726 70C72.9268 70 68.3486 75.3177 68.3486 81.875C68.3486 88.4323 72.9268 93.75 78.5726 93.75Z" fill="#696CFF"/>
<mask id="mask0_18_250" style="mask-type:luminance" maskUnits="userSpaceOnUse" x="115" y="0" width="51" height="48">
<path d="M115.291 0H165.958V47.7292H115.291V0Z" fill="white"/>
</mask>
<g mask="url(#mask0_18_250)">
<path d="M140.297 -0.00521851L147.922 15.4427L164.963 17.9219L152.63 29.9427L155.541 46.9219L140.297 38.9062L125.052 46.9219L127.963 29.9427L115.63 17.9219L132.672 15.4427L140.297 -0.00521851Z" fill="#696CFF"/>
</g>
<path d="M93.0465 40.8073L95.8069 46.3958L101.974 47.2917L97.5101 51.6406L98.5621 57.7812L93.0465 54.8802L87.5309 57.7812L88.583 51.6406L84.1246 47.2917L90.2913 46.3958L93.0465 40.8073Z" fill="#696CFF"/>
<path d="M138.182 54.3906L140.937 59.9792L147.104 60.875L142.64 65.2292L143.698 71.3698L138.182 68.4688L132.661 71.3698L133.718 65.2292L129.255 60.875L135.421 59.9792L138.182 54.3906Z" fill="#696CFF"/>
<path d="M188.432 46.9219L190.64 51.3906L195.573 52.1094L192.005 55.5885L192.843 60.5052L188.432 58.1875L184.015 60.5052L184.859 55.5885L181.286 52.1094L186.224 51.3906L188.432 46.9219Z" fill="#696CFF"/>
<path d="M180.01 36.4062C180.01 38.9739 177.927 41.0573 175.359 41.0573C172.791 41.0573 170.713 38.9739 170.713 36.4062C170.713 33.8385 172.791 31.7604 175.359 31.7604C177.927 31.7604 180.01 33.8385 180.01 36.4062Z" fill="#696CFF"/>
<path d="M218.172 55.375C218.172 57.4011 216.531 59.0417 214.505 59.0417C212.484 59.0417 210.843 57.4011 210.843 55.375C210.843 53.349 212.484 51.7083 214.505 51.7083C216.531 51.7083 218.172 53.349 218.172 55.375Z" fill="#696CFF"/>
<path d="M112.067 41.0573C112.067 43.0208 110.474 44.6146 108.505 44.6146C106.536 44.6146 104.942 43.0208 104.942 41.0573C104.942 39.0885 106.536 37.4948 108.505 37.4948C110.474 37.4948 112.067 39.0885 112.067 41.0573Z" fill="#696CFF"/>
</svg>
