<svg width="330" height="362" viewBox="0 0 330 362" fill="none" xmlns="http://www.w3.org/2000/svg">
<path d="M265.182 10.4635C265.182 8.94271 265.24 7.43229 265.344 5.9375C265.292 5.93229 265.234 5.92187 265.182 5.91667L165.016 6.15625L64.8385 5.90625C64.7865 5.91667 64.8385 8.9375 64.8385 10.4635C64.8385 44.0573 39.2031 71.6615 6.43228 74.7917C19.0573 211.354 73.4531 302.37 164.229 355.26C164.49 354.984 164.75 354.703 165.005 354.432C165.266 354.703 165.526 354.984 165.786 355.26C256.568 302.37 310.964 211.354 323.589 74.7917C290.818 71.6615 265.182 44.0573 265.182 10.4635Z" fill="white"/>
<mask id="mask0_51_101" style="mask-type:luminance" maskUnits="userSpaceOnUse" x="0" y="0" width="330" height="362">
<path d="M0.401031 0.322937H329.401V361.323H0.401031V0.322937Z" fill="white"/>
</mask>
<g mask="url(#mask0_51_101)">
<path d="M164.229 360.849C163.26 360.849 162.297 360.604 161.417 360.089C114.786 332.922 77.6927 295.609 51.1719 249.177C24.0781 201.734 7.14581 143.234 0.86456 75.3125C0.58331 72.2448 2.83331 69.5261 5.90102 69.2292C20.4375 67.8386 33.8958 61.1146 43.7969 50.2813C53.7604 39.3802 59.25 25.2396 59.25 10.4636C59.25 9.96877 59.2448 9.31252 59.2344 8.65627C59.2291 7.96356 59.2187 7.27085 59.2187 6.75002C59.2187 1.66148 62.5521 0.604188 63.9896 0.385437C64.276 0.34377 64.5573 0.328145 64.8541 0.322937L165.031 0.567729L265.167 0.322937C265.427 0.322937 265.745 0.34377 266.036 0.385437L266.193 0.40627C269.062 0.848978 271.12 3.4219 270.917 6.31773C270.812 7.72398 270.771 9.12502 270.771 10.4636C270.771 25.2396 276.26 39.3802 286.219 50.2813C296.115 61.1146 309.573 67.8386 324.115 69.2292C327.177 69.5261 329.437 72.2448 329.146 75.3125C322.87 143.234 305.943 201.734 278.849 249.177C252.328 295.609 215.234 332.922 168.604 360.089C167.49 360.74 166.219 360.964 165.005 360.797C164.755 360.828 164.49 360.849 164.229 360.849ZM165.016 348.844C165.219 348.844 165.417 348.859 165.62 348.88C209.297 322.849 244.115 287.453 269.151 243.635C294.745 198.818 311.005 143.661 317.51 79.6094C302.354 76.9271 288.479 69.3177 277.974 57.8229C266.359 45.1198 259.859 28.7084 259.609 11.5104L165.031 11.7396L70.4271 11.5104C70.1719 28.7084 63.6719 45.1146 52.0625 57.8229C41.5573 69.3125 27.6823 76.9271 12.526 79.6094C19.0312 143.661 35.2969 198.818 60.8854 243.635C85.9166 287.453 120.734 322.849 164.417 348.88C164.604 348.849 164.807 348.844 165.016 348.844Z" fill="#696CFF"/>
</g>
<mask id="mask1_51_101" style="mask-type:luminance" maskUnits="userSpaceOnUse" x="86" y="101" width="158" height="101">
<path d="M86.2812 101.286H243.281V201.287H86.2812V101.286Z" fill="white"/>
</mask>
<g mask="url(#mask1_51_101)">
<path d="M164.995 128.115C161.552 128.115 158.854 126.203 158.854 123.76C158.854 123.115 159.38 122.594 160.026 122.594C160.672 122.594 161.193 123.115 161.193 123.76C161.193 124.714 162.823 125.776 164.995 125.776C165.646 125.776 166.167 126.297 166.167 126.943C166.167 127.589 165.646 128.115 164.995 128.115ZM243.047 122.26L166.474 101.505C165.661 101.286 164.339 101.286 163.526 101.505L86.9479 122.26C86.5 122.385 86.2969 122.578 86.3177 122.786C86.3125 122.813 86.3177 122.839 86.3177 122.87C86.3125 122.896 86.3177 122.922 86.3177 122.948C86.3125 122.974 86.3177 123 86.3177 123.031C86.3125 123.057 86.3177 123.083 86.3177 123.109C86.3125 123.135 86.3177 123.167 86.3177 123.193C86.3125 123.219 86.3177 123.245 86.3177 123.271C86.3125 123.297 86.3177 123.328 86.3177 123.354C86.3125 123.38 86.3177 123.406 86.3177 123.438C86.3125 123.458 86.3177 123.49 86.3177 123.516C86.3125 123.542 86.3177 123.568 86.3177 123.594C86.3125 123.625 86.3177 123.651 86.3177 123.677C86.3125 123.703 86.3177 123.729 86.3177 123.755C86.3125 123.781 86.3177 123.813 86.3177 123.839C86.3125 123.865 86.3177 123.891 86.3177 123.917C86.3125 123.948 86.3177 123.974 86.3177 124C86.3125 124.026 86.3177 124.052 86.3177 124.078C86.3125 124.109 86.3177 124.135 86.3177 124.161C86.3125 124.188 86.3177 124.214 86.3177 124.24C86.3125 124.271 86.3177 124.297 86.3177 124.323C86.3125 124.349 86.3177 124.375 86.3177 124.406C86.3125 124.432 86.3177 124.458 86.3177 124.484C86.3125 124.51 86.3177 124.542 86.3177 124.568C86.2813 124.76 86.4583 124.979 86.8594 125.161L115.891 138.615L157.901 128.115L121.875 141.385V178.729C120.365 179.323 119.292 180.781 119.292 182.5C119.292 183.458 119.641 184.328 120.193 185.021C116.401 187.391 113.672 193.88 113.672 201.531H133.042C133.042 193.88 130.313 187.391 126.521 185.021C127.073 184.328 127.422 183.458 127.422 182.5C127.422 180.781 126.349 179.323 124.839 178.729V142.755L163.62 160.719C164.38 161.078 165.625 161.078 166.391 160.719L243.141 125.161C243.536 124.979 243.714 124.76 243.677 124.568C243.677 124.542 243.682 124.51 243.677 124.484C243.677 124.458 243.682 124.432 243.677 124.406C243.677 124.375 243.682 124.349 243.677 124.323C243.677 124.297 243.682 124.271 243.677 124.24C243.677 124.214 243.682 124.188 243.677 124.161C243.677 124.135 243.682 124.109 243.677 124.078C243.677 124.052 243.682 124.026 243.677 124C243.677 123.974 243.682 123.948 243.677 123.917C243.677 123.891 243.682 123.865 243.677 123.839C243.677 123.813 243.682 123.787 243.677 123.755C243.677 123.729 243.682 123.703 243.677 123.677C243.677 123.651 243.682 123.625 243.677 123.594C243.677 123.568 243.682 123.542 243.677 123.516C243.677 123.49 243.682 123.458 243.677 123.438C243.677 123.406 243.682 123.38 243.677 123.354C243.677 123.328 243.682 123.297 243.677 123.276C243.677 123.245 243.682 123.219 243.677 123.193C243.677 123.167 243.682 123.135 243.677 123.109C243.677 123.083 243.682 123.057 243.677 123.031C243.677 123 243.682 122.974 243.677 122.948C243.677 122.922 243.682 122.896 243.677 122.87C243.677 122.839 243.682 122.818 243.677 122.786C243.698 122.578 243.495 122.385 243.047 122.26Z" fill="#696CFF"/>
</g>
<path d="M163.62 163.927L127.63 147.255V174.776C135.328 179.406 149.177 182.5 164.995 182.5C189.187 182.5 208.797 175.276 208.797 166.365V144.281L166.385 163.927C165.625 164.286 164.38 164.286 163.62 163.927Z" fill="#696CFF"/>
<path d="M211.636 275.604L213.177 275.166V272.812L209.906 267.562L209.094 266.541L209.156 265.291H214.406L214.573 267L213.406 267.312L215.302 270.5L216.844 267.875C216.896 267.791 216.927 267.708 216.927 267.625C216.927 267.489 216.854 267.39 216.719 267.333L215.677 266.875L215.802 265.291H220.302L220.427 266.979L219.719 267.395L216.427 272.229V274.458C216.427 274.739 216.448 274.916 216.49 275C216.531 275.083 216.636 275.166 216.802 275.25L217.906 275.916L217.844 277.354H211.74L211.636 275.604Z" fill="#696CFF"/>
<path d="M199.357 275.604L200.899 275.166V267.416L199.399 267.541L198.087 269.145L196.774 269.041C196.774 268.041 196.821 266.791 196.92 265.291H208.128C208.222 266.791 208.274 268.041 208.274 269.041L206.982 269.145L205.628 267.541L204.17 267.416V274.458C204.17 274.739 204.18 274.916 204.212 275C204.253 275.083 204.357 275.166 204.524 275.25L205.628 275.916L205.566 277.354H199.441L199.357 275.604Z" fill="#696CFF"/>
<path d="M189.894 275.52L191.207 275.166V268.312C191.207 268.01 191.175 267.807 191.123 267.708C191.082 267.599 190.962 267.5 190.769 267.416L189.832 266.875L189.915 265.291H195.665L195.748 267.125L194.457 267.479V274.458C194.457 274.739 194.477 274.916 194.519 275C194.561 275.083 194.67 275.166 194.852 275.25L195.748 275.812L195.707 277.354H189.998L189.894 275.52Z" fill="#696CFF"/>
<path d="M183.615 277.562C182.292 277.562 180.958 277.359 179.615 276.958C179.667 275.781 179.766 274.682 179.906 273.666L181.281 273.396L182.177 274.916C182.885 275.166 183.516 275.291 184.073 275.291C184.266 275.291 184.667 275.239 185.281 275.125C185.307 274.89 185.323 274.729 185.323 274.646C185.323 274.369 185.271 274.156 185.177 274C185.078 273.849 184.87 273.682 184.552 273.5C184.229 273.323 183.656 273.041 182.823 272.666C181.792 272.166 181.052 271.635 180.594 271.062C180.146 270.479 179.927 269.791 179.927 269C179.927 267.765 180.344 266.807 181.177 266.125C182.01 265.432 183.156 265.083 184.615 265.083C185.307 265.083 186 265.156 186.698 265.291C187.406 265.416 188.021 265.604 188.552 265.854C188.521 266.521 188.469 267.349 188.385 268.333L188.323 269.104L187.031 269.291L185.656 267.562C185.224 267.437 184.687 267.375 184.052 267.375C183.646 267.375 183.344 267.411 183.135 267.479C183.078 267.718 183.052 267.896 183.052 268.021C183.052 268.286 183.115 268.521 183.24 268.729C183.375 268.927 183.615 269.125 183.948 269.333C184.281 269.541 184.771 269.802 185.427 270.104C186.385 270.562 187.104 270.968 187.594 271.312C188.078 271.661 188.417 272.021 188.615 272.396C188.823 272.771 188.927 273.224 188.927 273.75C188.927 274.932 188.453 275.864 187.51 276.541C186.562 277.224 185.266 277.562 183.615 277.562Z" fill="#696CFF"/>
<path d="M167.721 275.521L169.013 275.166V268.354C169.013 268.052 168.992 267.849 168.95 267.75C168.909 267.64 168.784 267.541 168.575 267.458L167.638 266.937L167.763 265.479C169.539 265.218 171.263 265.083 172.93 265.083C174.221 265.083 175.252 265.218 176.034 265.479C176.825 265.729 177.398 266.125 177.763 266.666C178.122 267.208 178.305 267.927 178.305 268.812C178.305 269.562 178.107 270.218 177.721 270.771C177.346 271.312 176.81 271.739 176.117 272.041L178.971 276.646L178.95 277.354H175.7L173.055 272.583L172.263 272.562V274.562C172.263 274.854 172.284 275.041 172.325 275.125C172.367 275.198 172.471 275.281 172.638 275.375L173.409 275.812L173.346 277.354H167.805L167.721 275.521ZM173.409 270.562C174.034 270.562 174.497 270.5 174.805 270.375C174.93 269.948 174.992 269.432 174.992 268.833C174.992 268.239 174.857 267.812 174.596 267.562C174.346 267.312 173.919 267.187 173.325 267.187C172.992 267.187 172.648 267.208 172.305 267.25V270.437C172.607 270.521 172.976 270.562 173.409 270.562Z" fill="#696CFF"/>
<path d="M156.386 275.52L157.699 275.166V268.312C157.699 268.01 157.668 267.807 157.615 267.708C157.574 267.599 157.449 267.5 157.24 267.416L156.345 266.895L156.407 265.291H166.115C166.199 266.541 166.24 267.765 166.24 268.958L164.928 269.041L163.657 267.479L160.949 267.395V270.312L164.761 270V272.75L160.949 272.333V275.229L163.928 275.166L165.303 273.604L166.636 273.687C166.579 274.937 166.49 276.161 166.365 277.354H156.47L156.386 275.52Z" fill="#696CFF"/>
<path d="M144.012 267.395L143.408 266.541L143.491 265.291H148.637L148.825 267L147.554 267.312L149.929 274.104L152.054 267.916C152.095 267.823 152.116 267.739 152.116 267.666C152.116 267.515 152.043 267.416 151.908 267.375L150.658 266.875L150.783 265.291H155.47L155.575 266.812L154.783 267.812L150.887 277.416L147.804 277.666L144.012 267.395Z" fill="#696CFF"/>
<path d="M136.59 275.52L137.903 275.166V268.312C137.903 268.01 137.872 267.807 137.819 267.708C137.778 267.599 137.658 267.5 137.465 267.416L136.528 266.875L136.611 265.291H142.361L142.444 267.125L141.153 267.479V274.458C141.153 274.739 141.174 274.916 141.215 275C141.257 275.083 141.366 275.166 141.549 275.25L142.444 275.812L142.403 277.354H136.694L136.59 275.52Z" fill="#696CFF"/>
<path d="M126.31 269.729L126.623 274.416C126.633 274.698 126.665 274.875 126.706 274.958C126.748 275.041 126.852 275.135 127.019 275.229L127.956 275.854L127.894 277.354H123.227L123.144 275.395L124.102 275.166L124.185 268.125C124.185 267.89 124.165 267.729 124.123 267.645C124.092 267.562 124.008 267.474 123.873 267.375L123.206 266.875L123.352 265.291H127.04L132.456 272.208L132.206 268.229C132.191 267.937 132.154 267.75 132.102 267.666C132.06 267.583 131.956 267.494 131.79 267.395L130.852 266.791L130.915 265.291H135.519L135.602 267.125L134.685 267.52L134.623 277.187L132.56 277.875L126.31 269.729Z" fill="#696CFF"/>
<path d="M115.691 277.583C113.925 277.583 112.634 277.125 111.816 276.208C111.009 275.281 110.608 273.823 110.608 271.833V268.312C110.608 268.01 110.587 267.807 110.545 267.708C110.504 267.599 110.384 267.5 110.191 267.416L109.608 267.083L109.67 265.291H115.254L115.337 267.062L113.858 267.479V271.145C113.858 272.385 114.035 273.364 114.399 274.083C114.759 274.791 115.368 275.145 116.233 275.145C116.524 275.145 116.8 275.104 117.066 275.02C117.342 274.937 117.571 274.828 117.754 274.687C117.879 274.411 117.962 274.041 118.004 273.583C118.056 273.125 118.087 272.51 118.087 271.729V268.312C118.087 268.01 118.056 267.807 118.004 267.708C117.962 267.599 117.837 267.5 117.629 267.416L116.754 266.916L116.858 265.291H122.17L122.254 267.229L121.316 267.479V271.52C121.316 273.437 120.821 274.932 119.837 276C118.863 277.057 117.483 277.583 115.691 277.583Z" fill="#696CFF"/>
<path d="M76.9958 246.531L79.2666 245.906V232.197C79.2666 231.588 79.2249 231.187 79.1416 230.989C79.0583 230.781 78.8187 230.593 78.4333 230.427L76.9333 229.552L77.0374 226.156H88.2041L88.3916 229.802L85.7458 230.531V235.739L93.8916 235.531V232.197C93.8916 231.588 93.8395 231.187 93.7458 230.989C93.6624 230.781 93.4124 230.593 92.9958 230.427L91.2458 229.406L91.4333 226.156H102.412L102.558 229.906L100.371 230.531V244.489C100.371 245.062 100.412 245.427 100.496 245.593C100.579 245.76 100.787 245.927 101.121 246.093L102.6 246.947L102.454 250.281H91.5791L91.3916 246.593L93.8916 245.906V240.572L85.7458 240.218V244.489C85.7458 245.062 85.7874 245.427 85.8708 245.593C85.9541 245.76 86.1676 245.927 86.5166 246.093L88.4124 247.197L88.2874 250.281H77.1833L76.9958 246.531Z" fill="#696CFF"/>
<path d="M103.985 247.093L105.11 246.406L113.485 226.114L119.568 225.593L126.714 244.906C126.964 245.531 127.13 245.942 127.214 246.135C127.308 246.317 127.49 246.583 127.755 246.927L128.401 247.739L128.193 250.281H118.13L117.776 246.885L120.318 246.239L119.172 242.614L111.901 242.739L111.11 244.989C111.037 245.197 111.005 245.38 111.005 245.531C111.005 245.697 111.031 245.822 111.089 245.906C111.156 245.989 111.261 246.052 111.401 246.093L113.88 247.135L113.505 250.281H104.13L103.985 247.093ZM115.693 231.697L113.339 238.572L117.964 238.802L115.693 231.697Z" fill="#696CFF"/>
<path d="M130.243 246.635L132.847 245.906V232.281C132.847 231.656 132.795 231.25 132.701 231.052C132.602 230.843 132.352 230.656 131.951 230.489L130.097 229.447L130.305 226.51C133.889 225.984 137.337 225.718 140.66 225.718C143.227 225.718 145.295 225.979 146.868 226.489C148.451 227.005 149.602 227.812 150.326 228.906C151.061 229.989 151.43 231.427 151.43 233.218C151.43 234.692 151.045 235.984 150.285 237.093C149.519 238.208 148.43 239.062 147.014 239.656L152.743 248.885L152.701 250.281H146.201L140.91 240.718L139.326 240.697V244.697C139.326 245.27 139.368 245.635 139.451 245.802C139.535 245.958 139.743 246.125 140.076 246.302L141.618 247.197L141.472 250.281H130.41L130.243 246.635ZM141.618 236.677C142.878 236.677 143.811 236.562 144.41 236.322C144.644 235.463 144.764 234.437 144.764 233.239C144.764 232.046 144.503 231.197 143.993 230.697C143.477 230.197 142.623 229.947 141.43 229.947C140.764 229.947 140.081 229.984 139.389 230.052V236.468C140.014 236.609 140.753 236.677 141.618 236.677Z" fill="#696CFF"/>
<path d="M153.599 247.093L154.724 246.406L163.099 226.114L169.183 225.593L176.328 244.906C176.578 245.531 176.745 245.942 176.828 246.135C176.922 246.317 177.104 246.583 177.37 246.927L178.016 247.739L177.808 250.281H167.745L167.391 246.885L169.933 246.239L168.787 242.614L161.516 242.739L160.724 244.989C160.651 245.197 160.62 245.38 160.62 245.531C160.62 245.697 160.646 245.822 160.703 245.906C160.771 245.989 160.875 246.052 161.016 246.093L163.495 247.135L163.12 250.281H153.745L153.599 247.093ZM165.308 231.697L162.953 238.572L167.578 238.802L165.308 231.697Z" fill="#696CFF"/>
<path d="M179.858 246.635L182.462 245.906V232.281C182.462 231.656 182.41 231.25 182.316 231.052C182.217 230.843 181.967 230.656 181.566 230.489L179.712 229.447L179.92 226.552C181.738 226.26 183.451 226.052 185.066 225.927C186.691 225.791 188.43 225.718 190.295 225.718C192.878 225.718 194.946 226 196.503 226.552C198.071 227.093 199.217 227.958 199.941 229.135C200.675 230.302 201.045 231.854 201.045 233.781C201.045 236.281 200.139 238.255 198.337 239.697C196.529 241.13 194.066 241.843 190.941 241.843L188.983 241.76V244.489C188.983 245.062 189.024 245.427 189.108 245.593C189.191 245.76 189.399 245.927 189.733 246.093L191.92 247.385L191.774 250.281H180.024L179.858 246.635ZM191.274 237.864C192.55 237.864 193.488 237.734 194.087 237.468C194.347 236.302 194.483 235.072 194.483 233.781C194.483 232.38 194.212 231.38 193.67 230.781C193.139 230.187 192.279 229.885 191.087 229.885C190.68 229.885 189.983 229.937 188.983 230.031V237.656C189.618 237.796 190.384 237.864 191.274 237.864Z" fill="#696CFF"/>
<path d="M202.247 247.093L203.372 246.406L211.747 226.114L217.831 225.593L224.976 244.906C225.226 245.531 225.393 245.942 225.476 246.135C225.57 246.317 225.752 246.583 226.018 246.927L226.664 247.739L226.456 250.281H216.393L216.039 246.885L218.581 246.239L217.435 242.614L210.164 242.739L209.372 244.989C209.299 245.197 209.268 245.38 209.268 245.531C209.268 245.697 209.294 245.822 209.351 245.906C209.419 245.989 209.523 246.052 209.664 246.093L212.143 247.135L211.768 250.281H202.393L202.247 247.093ZM213.956 231.697L211.601 238.572L216.226 238.802L213.956 231.697Z" fill="#696CFF"/>
<path d="M234.506 235.031L235.11 244.406C235.136 244.963 235.198 245.322 235.297 245.489C235.391 245.656 235.61 245.838 235.943 246.031L237.797 247.281L237.651 250.281H228.36L228.172 246.385L230.11 245.906L230.256 231.822C230.256 231.364 230.214 231.052 230.131 230.885C230.058 230.718 229.901 230.526 229.651 230.302L228.318 229.302L228.568 226.156H235.985L246.776 240.01L246.276 232.031C246.261 231.463 246.203 231.093 246.11 230.927C246.011 230.76 245.797 230.583 245.464 230.385L243.61 229.156L243.714 226.156H252.943L253.089 229.802L251.256 230.593L251.11 249.968L247.006 251.322L234.506 235.031Z" fill="#696CFF"/>
<mask id="mask2_51_101" style="mask-type:luminance" maskUnits="userSpaceOnUse" x="97" y="39" width="39" height="37">
<path d="M97.875 39.6562H135.875V75.6563H97.875V39.6562Z" fill="white"/>
</mask>
<g mask="url(#mask2_51_101)">
<path fill-rule="evenodd" clip-rule="evenodd" d="M116.875 39.6562L121.766 50.6146C121.953 51.0365 122.25 51.401 122.625 51.6719C123 51.9427 123.438 52.1094 123.901 52.1563L135.875 53.4063L126.922 61.4271C126.578 61.7396 126.323 62.1302 126.182 62.5677C126.036 63.0052 126.01 63.474 126.109 63.9271L128.615 75.6563L118.193 69.6563C117.792 69.4271 117.339 69.3021 116.875 69.3021C116.411 69.3021 115.958 69.4271 115.557 69.6563L105.13 75.6563L107.641 63.9271C107.734 63.474 107.714 63.0052 107.568 62.5677C107.427 62.1302 107.172 61.7396 106.828 61.4271L97.875 53.4063L109.849 52.1563C110.307 52.1094 110.75 51.9427 111.125 51.6719C111.495 51.401 111.792 51.0365 111.979 50.6146L116.875 39.6562Z" fill="#696CFF"/>
</g>
<mask id="mask3_51_101" style="mask-type:luminance" maskUnits="userSpaceOnUse" x="194" y="39" width="39" height="37">
<path d="M194.198 39.6562H232.198V75.6563H194.198V39.6562Z" fill="white"/>
</mask>
<g mask="url(#mask3_51_101)">
<path fill-rule="evenodd" clip-rule="evenodd" d="M213.198 39.6562L218.089 50.6146C218.276 51.0365 218.573 51.401 218.948 51.6719C219.323 51.9427 219.76 52.1094 220.219 52.1563L232.198 53.4063L223.245 61.4271C222.901 61.7396 222.646 62.1302 222.5 62.5677C222.359 63.0052 222.333 63.474 222.432 63.9271L224.937 75.6563L214.516 69.6563C214.115 69.4271 213.656 69.3021 213.198 69.3021C212.734 69.3021 212.281 69.4271 211.88 69.6563L201.453 75.6563L203.964 63.9271C204.057 63.474 204.031 63.0052 203.891 62.5677C203.75 62.1302 203.49 61.7396 203.146 61.4271L194.198 53.4063L206.172 52.1563C206.63 52.1094 207.073 51.9427 207.443 51.6719C207.818 51.401 208.115 51.0365 208.302 50.6146L213.198 39.6562Z" fill="#696CFF"/>
</g>
<mask id="mask4_51_101" style="mask-type:luminance" maskUnits="userSpaceOnUse" x="146" y="28" width="39" height="37">
<path d="M146.036 28.7917H184.036V64.7917H146.036V28.7917Z" fill="white"/>
</mask>
<g mask="url(#mask4_51_101)">
<path fill-rule="evenodd" clip-rule="evenodd" d="M165.036 28.7917L169.927 39.75C170.115 40.1719 170.411 40.5365 170.786 40.8073C171.161 41.0781 171.599 41.2448 172.057 41.2917L184.036 42.5417L175.083 50.5625C174.74 50.8698 174.484 51.2656 174.339 51.7031C174.198 52.1406 174.172 52.6094 174.271 53.0573L176.776 64.7917L166.354 58.7917C165.953 58.5573 165.5 58.4375 165.036 58.4375C164.573 58.4375 164.12 58.5573 163.719 58.7917L153.292 64.7917L155.802 53.0573C155.896 52.6094 155.87 52.1406 155.729 51.7031C155.589 51.2656 155.328 50.8698 154.984 50.5625L146.036 42.5417L158.01 41.2917C158.469 41.2448 158.911 41.0781 159.286 40.8073C159.656 40.5365 159.953 40.1719 160.141 39.75L165.036 28.7917Z" fill="#696CFF"/>
</g>
</svg>
