<svg width="5000" height="4000" viewBox="0 0 5000 4000" fill="none" xmlns="http://www.w3.org/2000/svg">
<g clip-path="url(#clip0_2_520)">
<path d="M5000 0H0V4000H5000V0Z" fill="#F5F4F9"/>
<g opacity="0.2">
<path d="M1284.18 1141.94C1228.88 1115.94 1137.42 1158.21 1108.26 1220.09C1052.59 1338.21 1232.63 1509.28 1298.11 1490.92C1371.28 1470.41 1385.72 1189.69 1284.18 1141.94Z" stroke="#0F31AC" stroke-width="20" stroke-miterlimit="10" stroke-linecap="round" stroke-dasharray="50 50 50 50 50 50"/>
<path d="M1007.56 1409.48C987.83 1398.07 778.76 1277.13 660.44 1372.84C577.37 1440.05 576.57 1583.7 639 1664.43C762.65 1824.34 1146.07 1752.65 1185.85 1638.23C1212.64 1561.18 1086.87 1455.36 1007.56 1409.48Z" stroke="#0F31AC" stroke-width="20" stroke-miterlimit="10" stroke-linecap="round" stroke-dasharray="50 50 50 50 50 50"/>
<path d="M1276.58 3384C1785.47 3257.69 2363.7 3129.1 3261.58 3151C3763.73 3163.25 3877.52 3007.42 4258.09 2813.67C4597.3 2641 4763.9 2297.61 4661.58 2103C4558.28 1906.53 4243.64 1984.75 3985.96 1692.29C3868.61 1559.09 3889.26 1465.73 3821.51 1318.02C3607 850.31 2802.83 484.74 2406.3 678.21C1882.43 933.8 2330.3 2038.21 1744.7 2339.85C1374.29 2530.69 1094.32 2164.34 728.58 2444C547.36 2582.57 325.72 2776.95 308.58 2988C308.58 2988 284.58 3504 1276.58 3384Z" stroke="#0F31AC" stroke-width="20" stroke-miterlimit="10" stroke-linecap="round" stroke-dasharray="50 50 50 50 50 50"/>
<path d="M4088.14 2809.3C4088.14 2809.3 3995.96 2931.52 3903.76 3099.21C3820.64 3250.43 3757.43 3454.21 3743.47 3624.31C3704.32 3622.46 3661.32 3620.72 3614.83 3619.07C3339.49 3609.3 2941.99 3603.18 2500 3603.18C1997.52 3603.18 1552.55 3611.1 1279.2 3623.28C1269.79 3623.7 1260.58 3624.12 1251.58 3624.55C910.31 3201.55 223.1 2464.63 855.52 2161.47C855.52 2161.47 901.85 2147.36 971.31 2117.05C1191.15 2021.05 1642.91 1762.91 1592.66 1276.05C1592.66 1276.05 1575.54 1185.21 1575.54 1058.81C1575.54 763.25 1669.11 273.33 2293.79 295.69C2672.08 309.25 3020.47 501.75 3231.1 809.87C3437.7 1112.08 3768.04 1483.87 4037.1 1271.63C4099.2 1222.63 4181.31 1204.45 4257.97 1226C4451.57 1280.44 4671.55 1562 4088.14 2809.3Z" fill="#ACBCF8"/>
</g>
<path opacity="0.15" d="M4590.48 3640.77C4590.48 3660.77 3654.54 3676.99 2500 3676.99C1848.57 3676.99 1266.73 3671.83 883.34 3663.73C795.03 3661.87 717.27 3659.85 651.6 3657.73C608.35 3656.32 570.35 3654.85 538.04 3653.32C454.92 3649.43 409.52 3645.21 409.52 3640.8C409.52 3635.19 483.21 3629.87 614.72 3625.14C668.57 3623.14 732.12 3621.34 804.28 3619.62C1183.97 3610.51 1802.04 3604.62 2500 3604.62C3113.94 3604.62 3666.07 3609.2 4048.52 3616.51C4385.27 3622.87 4590.48 3631.41 4590.48 3640.77Z" fill="#040C2B"/>
<path d="M2143.84 1720.31L1874 1612L1604.14 1720.31V2017.88H1606.51C1610.1 2169 1874 2291 1874 2291C1874 2291 2137.88 2169 2141.49 2017.88H2143.86L2143.84 1720.31Z" fill="#F2A700"/>
<path d="M1874 2278C1858 2270.22 1802.72 2242.11 1747.8 2201.23C1710.11 2173.17 1680 2144.69 1658.32 2116.58C1631.91 2082.35 1618.14 2048.73 1617.32 2016.67L1617.07 2006.07H1615V1726.73L1874 1622.73L2133 1726.73V2006.1H2130.89L2130.63 2016.7C2129.87 2048.76 2116.09 2082.38 2089.69 2116.61C2068 2144.72 2037.9 2173.2 2000.2 2201.26C1945.26 2242.14 1889.94 2270.25 1874 2278Z" fill="#FDB606"/>
<path d="M1980.4 2012.85C2036.79 1956.46 2036.79 1865.03 1980.4 1808.64C1924 1752.25 1832.57 1752.25 1776.18 1808.64C1719.79 1865.03 1719.79 1956.46 1776.18 2012.85C1832.57 2069.24 1924 2069.24 1980.4 2012.85Z" fill="#F2A700"/>
<path d="M1878.29 2044.29C1847.39 2044.29 1817.45 2033.58 1793.57 2013.98C1769.68 1994.38 1753.33 1967.11 1747.3 1936.8C1741.27 1906.5 1745.93 1875.04 1760.5 1847.79C1775.06 1820.54 1798.62 1799.18 1827.17 1787.36C1855.71 1775.53 1887.48 1773.97 1917.04 1782.94C1946.61 1791.91 1972.15 1810.85 1989.32 1836.54C2006.49 1862.23 2014.22 1893.08 2011.19 1923.82C2008.16 1954.57 1994.57 1983.32 1972.72 2005.17C1960.35 2017.61 1945.63 2027.47 1929.42 2034.19C1913.21 2040.9 1895.83 2044.34 1878.29 2044.29Z" fill="white"/>
<path d="M1849.49 1964.8L1813.25 1927.61C1811.47 1925.79 1810.07 1923.64 1809.13 1921.28C1808.19 1918.91 1807.72 1916.39 1807.75 1913.85C1807.78 1911.3 1808.32 1908.79 1809.32 1906.46C1810.32 1904.12 1811.78 1902 1813.6 1900.23C1815.42 1898.45 1817.57 1897.05 1819.93 1896.11C1822.3 1895.17 1824.82 1894.7 1827.36 1894.73C1829.91 1894.76 1832.42 1895.3 1834.75 1896.3C1837.09 1897.3 1839.21 1898.76 1840.98 1900.58L1857.44 1917.46L1915.78 1859.12C1917.58 1857.32 1919.71 1855.9 1922.06 1854.92C1924.41 1853.95 1926.93 1853.45 1929.47 1853.45C1932.01 1853.45 1934.53 1853.95 1936.88 1854.92C1939.23 1855.9 1941.36 1857.32 1943.16 1859.12C1944.96 1860.92 1946.39 1863.05 1947.36 1865.4C1948.33 1867.75 1948.84 1870.27 1948.84 1872.81C1948.84 1875.36 1948.33 1877.88 1947.36 1880.23C1946.39 1882.58 1944.96 1884.71 1943.16 1886.51L1864.78 1964.9C1863.77 1965.9 1862.58 1966.7 1861.26 1967.24C1859.95 1967.78 1858.54 1968.05 1857.11 1968.04C1855.69 1968.03 1854.29 1967.74 1852.98 1967.19C1851.67 1966.63 1850.48 1965.82 1849.49 1964.8Z" fill="#FDB606"/>
<path d="M2713.76 2328.58C2642.12 2328.58 2574.76 2301.42 2524.08 2252.1C2473.4 2202.78 2445.38 2137.01 2445.38 2067.1C2445.38 1997.19 2473.33 1931.52 2524.08 1882.1C2574.83 1832.68 2642.08 1805.62 2713.76 1805.62C2785.44 1805.62 2852.76 1832.78 2903.43 1882.1C2954.1 1931.42 2982.14 1997.19 2982.14 2067.1C2982.14 2137.01 2954.19 2202.69 2903.43 2252.1C2852.67 2301.51 2785.39 2328.58 2713.76 2328.58Z" fill="#ACBCF8"/>
<path d="M3515.09 3483.17V2194.25C3515.09 2118.68 3453.83 2057.42 3378.26 2057.42H2049.27C1973.7 2057.42 1912.44 2118.68 1912.44 2194.25V3483.17C1912.44 3558.74 1973.7 3620 2049.27 3620H3378.26C3453.83 3620 3515.09 3558.74 3515.09 3483.17Z" fill="#ACBCF8"/>
<path d="M3373.24 2067.43H2054.28C1981.47 2067.43 1922.45 2126.45 1922.45 2199.26V3478.15C1922.45 3550.96 1981.47 3609.98 2054.28 3609.98H3373.24C3446.05 3609.98 3505.07 3550.96 3505.07 3478.15V2199.26C3505.07 2126.45 3446.05 2067.43 3373.24 2067.43Z" fill="#829CF8"/>
<path d="M2713.76 2318.57C2856.45 2318.57 2972.12 2205.99 2972.12 2067.12C2972.12 1928.25 2856.45 1815.67 2713.76 1815.67C2571.07 1815.67 2455.4 1928.25 2455.4 2067.12C2455.4 2205.99 2571.07 2318.57 2713.76 2318.57Z" fill="#E3E9F7"/>
<path d="M2779.99 1990.45C2785.8 1953.93 2760.89 1919.62 2724.37 1913.81C2687.85 1908.01 2653.54 1932.91 2647.73 1969.43C2641.93 2005.96 2666.83 2040.27 2703.35 2046.07C2739.87 2051.88 2774.19 2026.97 2779.99 1990.45Z" fill="#829CF8"/>
<path d="M2633.08 2068.32H2794.43C2806.02 2068.32 2817.13 2072.92 2825.32 2081.11C2833.51 2089.31 2838.11 2100.42 2838.11 2112V2216.34C2838.11 2217.67 2837.58 2218.94 2836.65 2219.88C2835.71 2220.81 2834.44 2221.34 2833.11 2221.34H2594.44C2593.11 2221.34 2591.84 2220.81 2590.91 2219.88C2589.97 2218.94 2589.44 2217.67 2589.44 2216.34V2112C2589.44 2100.42 2594.04 2089.32 2602.22 2081.13C2610.4 2072.94 2621.5 2068.33 2633.08 2068.32Z" fill="#829CF8"/>
<path opacity="0.1" d="M2984.23 3242.64H2443.29C2424.92 3242.64 2410.03 3257.53 2410.03 3275.9V3394.98C2410.03 3413.35 2424.92 3428.24 2443.29 3428.24H2984.23C3002.6 3428.24 3017.49 3413.35 3017.49 3394.98V3275.9C3017.49 3257.53 3002.6 3242.64 2984.23 3242.64Z" fill="black"/>
<path d="M2978.12 3231.43H2449.41C2431.04 3231.43 2416.15 3246.32 2416.15 3264.69V3380.03C2416.15 3398.4 2431.04 3413.29 2449.41 3413.29H2978.12C2996.49 3413.29 3011.38 3398.4 3011.38 3380.03V3264.69C3011.38 3246.32 2996.49 3231.43 2978.12 3231.43Z" fill="#E3E9F7"/>
<path d="M2619.14 3333.28C2619.23 3335.28 2618.84 3337.27 2618.01 3339.08C2617.17 3340.9 2615.93 3342.5 2614.36 3343.74C2611.18 3346.28 2606.74 3347.56 2601.07 3347.56C2596.28 3347.65 2591.53 3346.64 2587.19 3344.61V3335C2589.9 3336.26 2592.71 3337.3 2595.59 3338.12C2597.64 3338.69 2599.75 3338.99 2601.87 3339.03C2603.71 3339.14 2605.55 3338.68 2607.12 3337.72C2607.73 3337.28 2608.21 3336.69 2608.53 3336.01C2608.85 3335.33 2609 3334.58 2608.95 3333.83C2608.96 3332.91 2608.68 3332.01 2608.14 3331.26C2607.49 3330.41 2606.69 3329.68 2605.78 3329.1C2603.73 3327.87 2601.61 3326.76 2599.43 3325.78C2597.01 3324.73 2594.75 3323.37 2592.69 3321.73C2591.22 3320.46 2590 3318.93 2589.1 3317.2C2588.18 3315.34 2587.72 3313.28 2587.76 3311.2C2587.76 3306.86 2589.23 3303.45 2592.17 3300.97C2595.11 3298.49 2599.17 3297.25 2604.35 3297.25C2606.81 3297.24 2609.27 3297.54 2611.65 3298.16C2614.13 3298.82 2616.55 3299.67 2618.9 3300.7L2615.55 3308.78C2613.44 3307.88 2611.27 3307.13 2609.06 3306.54C2607.43 3306.12 2605.75 3305.91 2604.06 3305.9C2602.43 3305.79 2600.82 3306.28 2599.53 3307.27C2599.02 3307.71 2598.61 3308.27 2598.34 3308.89C2598.07 3309.51 2597.94 3310.18 2597.96 3310.86C2597.94 3311.7 2598.16 3312.54 2598.59 3313.26C2599.12 3314.05 2599.8 3314.73 2600.59 3315.26C2602.72 3316.53 2604.92 3317.67 2607.18 3318.69C2611.76 3320.88 2614.9 3323.07 2616.6 3325.28C2618.32 3327.59 2619.21 3330.4 2619.14 3333.28Z" fill="#829CF8"/>
<path d="M2628 3346.89V3297.89H2638.39V3346.89H2628Z" fill="#829CF8"/>
<path d="M2669.36 3319.36H2688.8V3344.77C2685.9 3345.74 2682.92 3346.46 2679.9 3346.94C2677.08 3347.35 2674.23 3347.56 2671.37 3347.56C2663.97 3347.56 2658.32 3345.39 2654.42 3341.04C2650.52 3336.69 2648.57 3330.45 2648.57 3322.31C2648.57 3314.4 2650.83 3308.24 2655.36 3303.81C2659.89 3299.38 2666.16 3297.17 2674.18 3297.17C2679.18 3297.16 2684.14 3298.18 2688.73 3300.17L2685.28 3308.48C2681.82 3306.72 2678 3305.8 2674.12 3305.8C2672.1 3305.72 2670.08 3306.08 2668.22 3306.86C2666.35 3307.64 2664.68 3308.83 2663.32 3310.33C2660.62 3313.34 2659.27 3317.4 2659.27 3322.49C2659.27 3327.82 2660.36 3331.89 2662.53 3334.68C2664.7 3337.47 2667.87 3338.88 2672.04 3338.89C2674.26 3338.88 2676.47 3338.66 2678.64 3338.22V3328H2669.36V3319.36Z" fill="#829CF8"/>
<path d="M2744 3346.89H2730.79L2709.47 3309.81H2709.17C2709.59 3316.36 2709.8 3321.03 2709.8 3323.81V3346.88H2700.52V3297.88H2713.62L2734.91 3334.59H2735.15C2734.81 3328.22 2734.64 3323.72 2734.64 3321.08V3297.88H2744V3346.89Z" fill="#829CF8"/>
<path d="M2774.12 3346.89V3297.89H2784.51V3346.89H2774.12Z" fill="#829CF8"/>
<path d="M2840.33 3346.89H2827.12L2805.8 3309.81H2805.5C2805.92 3316.36 2806.13 3321.03 2806.13 3323.81V3346.88H2796.85V3297.88H2810L2831.28 3334.59H2831.52C2831.18 3328.22 2831.01 3323.72 2831.01 3321.08V3297.88H2840.37L2840.33 3346.89Z" fill="#829CF8"/>
<path d="M3131.8 2575.96H2295.71C2277.34 2575.96 2262.45 2590.85 2262.45 2609.22V2699.17C2262.45 2717.54 2277.34 2732.43 2295.71 2732.43H3131.8C3150.17 2732.43 3165.06 2717.54 3165.06 2699.17V2609.22C3165.06 2590.85 3150.17 2575.96 3131.8 2575.96Z" fill="#E3E9F7"/>
<path d="M3131.8 2884.47H2295.71C2277.34 2884.47 2262.45 2899.36 2262.45 2917.73V3007.68C2262.45 3026.05 2277.34 3040.94 2295.71 3040.94H3131.8C3150.17 3040.94 3165.06 3026.05 3165.06 3007.68V2917.73C3165.06 2899.36 3150.17 2884.47 3131.8 2884.47Z" fill="#E3E9F7"/>
<path d="M2622.69 2946.31L2621.29 2958.91L2634.06 2955.35L2635.19 2963.98L2623.55 2964.8L2631.18 2974.97L2623.41 2979.11L2618.07 2968.39L2613.38 2979.04L2605.3 2974.97L2612.86 2964.8L2601.29 2963.91L2602.63 2955.35L2615.12 2958.91L2613.72 2946.31H2622.69Z" fill="white"/>
<path d="M2660.9 2946.31L2659.49 2958.91L2672.26 2955.35L2673.39 2963.98L2661.75 2964.8L2669.39 2974.97L2661.62 2979.11L2656.28 2968.39L2651.59 2979.04L2643.51 2974.97L2651.07 2964.8L2639.5 2963.91L2640.84 2955.35L2653.33 2958.91L2651.93 2946.31H2660.9Z" fill="white"/>
<path d="M2699.11 2946.31L2697.7 2958.91L2710.47 2955.35L2711.6 2963.98L2699.96 2964.8L2707.6 2974.97L2699.82 2979.11L2694.48 2968.39L2689.79 2979.04L2681.71 2974.97L2689.28 2964.8L2677.71 2963.91L2679.04 2955.35L2691.54 2958.91L2690.14 2946.31H2699.11Z" fill="white"/>
<path d="M2737.31 2946.31L2735.91 2958.91L2748.68 2955.35L2749.81 2963.98L2738.17 2964.8L2745.8 2974.97L2738.03 2979.11L2732.69 2968.39L2728 2979L2719.92 2974.93L2727.49 2964.76L2715.92 2963.87L2717.25 2955.31L2729.75 2958.87L2728.34 2946.27L2737.31 2946.31Z" fill="white"/>
<path d="M2775.52 2946.31L2774.12 2958.91L2786.89 2955.35L2788 2964L2776.36 2964.82L2784 2975L2776.23 2979.14L2770.89 2968.42L2766.2 2979.07L2758.12 2975L2765.69 2964.83L2754.11 2963.94L2755.45 2955.38L2767.94 2958.94L2766.54 2946.34L2775.52 2946.31Z" fill="white"/>
<path d="M2813.73 2946.31L2812.32 2958.91L2825.09 2955.35L2826.22 2963.98L2814.58 2964.8L2822.22 2974.97L2814.45 2979.11L2809.11 2968.39L2804.42 2979.04L2796.34 2974.97L2803.9 2964.8L2792.33 2963.91L2793.67 2955.35L2806.16 2958.91L2804.76 2946.31H2813.73Z" fill="white"/>
<path d="M2287.9 2538.64H2267.31V2502.89H2287.9V2509.1H2274.9V2517H2287V2523.21H2274.89V2532.43H2287.89L2287.9 2538.64Z" fill="#E3E9F7"/>
<path d="M2292.35 2528.27V2522.16H2305.49V2528.27H2292.35Z" fill="#E3E9F7"/>
<path d="M2335.37 2538.64H2327.91V2522.64C2328.01 2521.09 2327.66 2519.55 2326.91 2518.2C2326.56 2517.7 2326.09 2517.31 2325.55 2517.05C2325 2516.79 2324.39 2516.68 2323.79 2516.72C2322.97 2516.66 2322.15 2516.82 2321.42 2517.19C2320.69 2517.57 2320.07 2518.13 2319.64 2518.83C2318.77 2520.23 2318.34 2522.53 2318.34 2525.75V2538.61H2310.88V2511.3H2316.58L2317.58 2514.8H2318C2318.74 2513.51 2319.85 2512.46 2321.18 2511.8C2322.66 2511.07 2324.29 2510.71 2325.94 2510.74C2330.04 2510.74 2332.81 2512.07 2334.26 2514.74H2334.92C2335.66 2513.43 2336.8 2512.38 2338.16 2511.74C2339.67 2511.02 2341.32 2510.66 2342.99 2510.69C2346.09 2510.69 2348.42 2511.48 2349.99 2513.07C2351.56 2514.66 2352.35 2517.2 2352.37 2520.71V2538.54H2344.89V2522.54C2344.99 2520.99 2344.64 2519.45 2343.89 2518.1C2343.54 2517.6 2343.07 2517.21 2342.53 2516.95C2341.98 2516.69 2341.37 2516.58 2340.77 2516.62C2339.97 2516.57 2339.18 2516.73 2338.46 2517.08C2337.75 2517.43 2337.13 2517.96 2336.68 2518.62C2335.77 2519.95 2335.32 2522.02 2335.32 2524.83L2335.37 2538.64Z" fill="#E3E9F7"/>
<path d="M2377.43 2538.64L2375.99 2534.92H2375.79C2374.77 2536.3 2373.45 2537.43 2371.92 2538.21C2370.27 2538.88 2368.5 2539.2 2366.72 2539.13C2365.59 2539.19 2364.46 2539.02 2363.39 2538.64C2362.33 2538.25 2361.35 2537.65 2360.52 2536.88C2359.73 2536.02 2359.12 2535.01 2358.73 2533.91C2358.35 2532.8 2358.18 2531.64 2358.26 2530.47C2358.26 2527.57 2359.26 2525.43 2361.26 2524.05C2363.26 2522.67 2366.32 2521.91 2370.45 2521.77L2375.19 2521.62V2520.42C2375.19 2517.65 2373.77 2516.27 2370.94 2516.26C2368.26 2516.39 2365.63 2517.07 2363.23 2518.26L2360.76 2513.26C2364 2511.59 2367.59 2510.74 2371.23 2510.79C2374.9 2510.79 2377.72 2511.59 2379.67 2513.18C2381.62 2514.77 2382.6 2517.2 2382.6 2520.47V2538.69L2377.43 2538.64ZM2375.23 2525.97L2372.34 2526.07C2370.65 2526.02 2368.98 2526.42 2367.5 2527.24C2366.97 2527.6 2366.55 2528.09 2366.27 2528.67C2365.99 2529.24 2365.87 2529.88 2365.91 2530.52C2365.91 2532.62 2367.12 2533.67 2369.53 2533.67C2370.29 2533.71 2371.04 2533.6 2371.75 2533.34C2372.47 2533.09 2373.12 2532.69 2373.68 2532.18C2374.21 2531.66 2374.62 2531.04 2374.88 2530.35C2375.15 2529.66 2375.27 2528.92 2375.23 2528.18V2525.97Z" fill="#E3E9F7"/>
<path d="M2390 2504.23C2390 2501.8 2391.35 2500.59 2394.06 2500.59C2396.77 2500.59 2398.12 2501.8 2398.12 2504.23C2398.15 2504.73 2398.08 2505.22 2397.91 2505.69C2397.74 2506.15 2397.47 2506.58 2397.12 2506.93C2396.29 2507.64 2395.21 2508 2394.12 2507.93C2391.37 2507.91 2390 2506.68 2390 2504.23ZM2397.78 2538.64H2390.32V2511.3H2397.78V2538.64Z" fill="#E3E9F7"/>
<path d="M2413.06 2538.64H2405.6V2500.64H2413.06V2538.64Z" fill="#E3E9F7"/>
<path d="M2292 2824.55C2292 2828.4 2290.8 2831.34 2288.39 2833.38C2285.98 2835.42 2282.57 2836.44 2278.14 2836.44H2274.88V2849.15H2267.3V2813.4H2278.72C2283.06 2813.4 2286.36 2814.33 2288.61 2816.2C2290.86 2818.07 2291.99 2820.85 2292 2824.55ZM2274.88 2830.22H2277.38C2279.23 2830.36 2281.07 2829.87 2282.61 2828.84C2283.19 2828.36 2283.66 2827.74 2283.96 2827.05C2284.26 2826.35 2284.39 2825.6 2284.35 2824.84C2284.41 2824.12 2284.31 2823.39 2284.05 2822.71C2283.8 2822.03 2283.4 2821.41 2282.89 2820.9C2281.57 2819.95 2279.95 2819.5 2278.33 2819.63H2274.88V2830.22Z" fill="#E3E9F7"/>
<path d="M2315.54 2849.15L2314.09 2845.44H2313.9C2312.88 2846.82 2311.55 2847.94 2310.02 2848.72C2308.38 2849.4 2306.61 2849.71 2304.83 2849.64C2303.7 2849.7 2302.57 2849.54 2301.5 2849.15C2300.43 2848.76 2299.46 2848.16 2298.63 2847.39C2297.84 2846.53 2297.23 2845.52 2296.84 2844.42C2296.45 2843.32 2296.28 2842.15 2296.36 2840.98C2296.36 2838.08 2297.36 2835.94 2299.36 2834.57C2301.36 2833.2 2304.42 2832.43 2308.54 2832.28L2313.29 2832.13V2830.93C2313.29 2828.16 2311.87 2826.77 2309.03 2826.78C2306.35 2826.91 2303.73 2827.59 2301.33 2828.78L2298.86 2823.78C2302.09 2822.11 2305.68 2821.26 2309.32 2821.31C2312.99 2821.31 2315.81 2822.11 2317.76 2823.71C2319.71 2825.31 2320.69 2827.74 2320.7 2830.99V2849.21L2315.54 2849.15ZM2313.34 2836.49L2310.45 2836.58C2308.76 2836.52 2307.09 2836.93 2305.61 2837.76C2305.08 2838.11 2304.66 2838.6 2304.38 2839.17C2304.1 2839.74 2303.97 2840.37 2304 2841C2304 2843.11 2305.2 2844.16 2307.62 2844.16C2308.37 2844.2 2309.13 2844.08 2309.84 2843.83C2310.55 2843.57 2311.2 2843.18 2311.76 2842.67C2312.29 2842.15 2312.7 2841.53 2312.97 2840.84C2313.24 2840.15 2313.36 2839.41 2313.32 2838.67L2313.34 2836.49Z" fill="#E3E9F7"/>
<path d="M2347.5 2841C2347.57 2842.23 2347.34 2843.45 2346.83 2844.57C2346.32 2845.68 2345.55 2846.66 2344.58 2847.41C2342.63 2848.88 2339.72 2849.61 2335.83 2849.61C2334.13 2849.64 2332.43 2849.5 2330.75 2849.21C2329.4 2848.95 2328.08 2848.56 2326.81 2848.02V2841.86C2328.32 2842.55 2329.88 2843.1 2331.49 2843.5C2332.99 2843.91 2334.53 2844.13 2336.08 2844.16C2338.78 2844.16 2340.14 2843.38 2340.14 2841.81C2340.16 2841.28 2339.96 2840.77 2339.6 2840.38C2339.04 2839.88 2338.42 2839.46 2337.74 2839.13C2336.86 2838.67 2335.74 2838.13 2334.22 2837.51C2332.58 2836.88 2331.03 2836.06 2329.59 2835.06C2328.67 2834.39 2327.93 2833.51 2327.43 2832.48C2326.95 2831.35 2326.73 2830.13 2326.76 2828.9C2326.71 2827.8 2326.95 2826.7 2327.44 2825.71C2327.94 2824.73 2328.68 2823.88 2329.59 2823.26C2331.47 2821.93 2334.14 2821.26 2337.59 2821.26C2340.92 2821.27 2344.2 2822 2347.21 2823.41L2344.96 2828.79C2343.71 2828.24 2342.42 2827.76 2341.12 2827.35C2339.94 2826.98 2338.71 2826.79 2337.47 2826.79C2335.27 2826.79 2334.17 2827.38 2334.17 2828.57C2334.19 2828.93 2334.29 2829.27 2334.48 2829.58C2334.66 2829.88 2334.92 2830.13 2335.23 2830.31C2336.72 2831.17 2338.28 2831.89 2339.89 2832.48C2341.55 2833.1 2343.12 2833.91 2344.59 2834.9C2345.52 2835.58 2346.28 2836.47 2346.79 2837.5C2347.29 2838.6 2347.53 2839.79 2347.5 2841Z" fill="#E3E9F7"/>
<path d="M2372.39 2841C2372.46 2842.23 2372.24 2843.45 2371.73 2844.57C2371.22 2845.69 2370.44 2846.66 2369.47 2847.41C2367.52 2848.88 2364.61 2849.61 2360.73 2849.61C2359.02 2849.64 2357.32 2849.5 2355.64 2849.21C2354.29 2848.95 2352.97 2848.55 2351.7 2848.02V2841.86C2353.21 2842.55 2354.78 2843.1 2356.39 2843.5C2357.88 2843.91 2359.42 2844.13 2360.97 2844.16C2363.68 2844.16 2365.04 2843.38 2365.03 2841.81C2365.05 2841.28 2364.85 2840.77 2364.49 2840.38C2363.94 2839.87 2363.32 2839.45 2362.64 2839.13C2361.76 2838.67 2360.58 2838.13 2359.11 2837.51C2357.48 2836.88 2355.92 2836.06 2354.48 2835.06C2353.56 2834.39 2352.82 2833.5 2352.33 2832.48C2351.85 2831.35 2351.62 2830.13 2351.66 2828.9C2351.61 2827.8 2351.85 2826.7 2352.34 2825.72C2352.83 2824.73 2353.57 2823.88 2354.48 2823.26C2356.36 2821.93 2359.03 2821.26 2362.48 2821.26C2365.8 2821.27 2369.08 2822 2372.09 2823.41L2369.84 2828.79C2368.59 2828.24 2367.3 2827.76 2366 2827.35C2364.82 2826.98 2363.6 2826.79 2362.36 2826.79C2360.16 2826.79 2359.06 2827.38 2359.06 2828.57C2359.07 2828.93 2359.18 2829.27 2359.37 2829.58C2359.55 2829.88 2359.81 2830.13 2360.12 2830.31C2361.61 2831.17 2363.17 2831.9 2364.78 2832.48C2366.43 2833.1 2368.01 2833.91 2369.47 2834.9C2370.4 2835.57 2371.16 2836.47 2371.67 2837.5C2372.18 2838.6 2372.42 2839.79 2372.39 2841Z" fill="#E3E9F7"/>
<path d="M2400.69 2849.15L2398.58 2839.59L2395.75 2827.51H2395.58L2390.58 2849.15H2382.58L2374.8 2821.81H2382.23L2385.39 2833.92C2385.89 2836.09 2386.39 2839.08 2386.93 2842.92H2387.08C2387.25 2840.94 2387.53 2838.97 2387.93 2837.03L2388.32 2834.95L2391.7 2821.84H2399.91L2403.12 2834.95C2403.18 2835.31 2403.28 2835.84 2403.42 2836.54C2403.56 2837.24 2403.7 2837.99 2403.83 2838.78C2403.96 2839.57 2404.08 2840.34 2404.18 2841.1C2404.28 2841.86 2404.35 2842.47 2404.37 2842.92H2404.51C2404.66 2841.75 2404.92 2840.14 2405.29 2838.09C2405.66 2836.04 2405.93 2834.66 2406.1 2833.95L2409.38 2821.84H2416.69L2408.82 2849.18L2400.69 2849.15Z" fill="#E3E9F7"/>
<path d="M2445.93 2835.43C2445.93 2839.88 2444.76 2843.37 2442.41 2845.88C2440.06 2848.39 2436.79 2849.65 2432.6 2849.64C2430.18 2849.69 2427.78 2849.1 2425.66 2847.92C2423.65 2846.76 2422.03 2845.02 2421.03 2842.92C2419.92 2840.57 2419.36 2837.98 2419.42 2835.38C2419.42 2830.92 2420.58 2827.44 2422.92 2824.97C2425.26 2822.5 2428.52 2821.25 2432.75 2821.25C2435.17 2821.2 2437.57 2821.79 2439.69 2822.96C2441.69 2824.09 2443.31 2825.81 2444.31 2827.88C2445.44 2830.23 2446 2832.82 2445.93 2835.43ZM2427.02 2835.43C2426.88 2837.56 2427.35 2839.69 2428.36 2841.57C2428.83 2842.27 2429.48 2842.83 2430.25 2843.2C2431.01 2843.57 2431.86 2843.72 2432.7 2843.65C2433.53 2843.72 2434.37 2843.57 2435.13 2843.2C2435.88 2842.84 2436.53 2842.28 2436.99 2841.58C2437.98 2839.69 2438.44 2837.56 2438.3 2835.43C2438.44 2833.32 2437.98 2831.21 2436.98 2829.34C2436.45 2828.71 2435.79 2828.2 2435.05 2827.85C2434.3 2827.5 2433.49 2827.32 2432.66 2827.32C2431.84 2827.32 2431.03 2827.5 2430.28 2827.85C2429.54 2828.2 2428.88 2828.71 2428.35 2829.34C2427.45 2830.68 2427 2832.71 2427 2835.43H2427.02Z" fill="#E3E9F7"/>
<path d="M2467.35 2821.3C2468.2 2821.28 2469.04 2821.36 2469.87 2821.52L2469.31 2828.52C2468.59 2828.35 2467.85 2828.27 2467.11 2828.28C2465.09 2828.16 2463.1 2828.81 2461.54 2830.11C2460.86 2830.77 2460.33 2831.58 2459.98 2832.46C2459.64 2833.35 2459.49 2834.3 2459.54 2835.25V2849.16H2452.08V2821.82H2457.73L2458.83 2826.42H2459.2C2460.02 2824.92 2461.2 2823.64 2462.63 2822.71C2464.03 2821.79 2465.67 2821.3 2467.35 2821.3Z" fill="#E3E9F7"/>
<path d="M2483.49 2849.64C2482.02 2849.69 2480.55 2849.38 2479.23 2848.72C2477.91 2848.07 2476.77 2847.1 2475.92 2845.9C2474.09 2843.41 2473.18 2839.95 2473.17 2835.53C2473.16 2831.11 2474.1 2827.62 2475.97 2825.05C2476.85 2823.84 2478.01 2822.86 2479.36 2822.21C2480.71 2821.55 2482.19 2821.24 2483.69 2821.3C2485.24 2821.23 2486.77 2821.56 2488.15 2822.26C2489.53 2822.96 2490.71 2824.01 2491.56 2825.3H2491.8C2491.45 2823.5 2491.27 2821.68 2491.24 2819.85V2811.09H2498.73V2849.14H2493L2491.56 2845.6H2491.24C2490.43 2846.91 2489.29 2847.98 2487.92 2848.69C2486.56 2849.4 2485.03 2849.73 2483.49 2849.64ZM2486.11 2843.7C2486.89 2843.77 2487.67 2843.65 2488.4 2843.36C2489.13 2843.08 2489.78 2842.62 2490.3 2842.04C2491.19 2840.93 2491.67 2839.04 2491.76 2836.39V2835.58C2491.76 2832.65 2491.3 2830.58 2490.4 2829.27C2489.88 2828.61 2489.2 2828.09 2488.43 2827.76C2487.66 2827.42 2486.82 2827.29 2485.98 2827.36C2485.21 2827.34 2484.44 2827.52 2483.76 2827.9C2483.08 2828.27 2482.51 2828.82 2482.11 2829.48C2481.08 2831.36 2480.6 2833.49 2480.73 2835.63C2480.73 2838.3 2481.19 2840.3 2482.12 2841.63C2482.55 2842.29 2483.14 2842.83 2483.84 2843.19C2484.54 2843.55 2485.32 2843.73 2486.11 2843.7Z" fill="#E3E9F7"/>
<path d="M2407.7 2672.41V2622.41H2418.32V2663.7H2438.62V2672.46L2407.7 2672.41Z" fill="white"/>
<path d="M2481.28 2653.21C2481.28 2659.44 2479.64 2664.31 2476.35 2667.82C2473.06 2671.33 2468.49 2673.09 2462.62 2673.1C2459.22 2673.17 2455.87 2672.33 2452.9 2670.68C2450.09 2669.07 2447.84 2666.66 2446.42 2663.75C2444.86 2660.46 2444.08 2656.85 2444.16 2653.21C2444.16 2646.95 2445.79 2642.09 2449.06 2638.62C2452.33 2635.15 2456.91 2633.42 2462.82 2633.42C2466.22 2633.35 2469.57 2634.18 2472.55 2635.81C2475.35 2637.41 2477.6 2639.81 2479.02 2642.7C2480.59 2645.98 2481.36 2649.58 2481.28 2653.21ZM2454.81 2653.21C2454.81 2657 2455.43 2659.86 2456.68 2661.8C2457.93 2663.74 2459.95 2664.71 2462.76 2664.71C2465.54 2664.71 2467.54 2663.75 2468.76 2661.82C2469.98 2659.89 2470.6 2657.02 2470.6 2653.21C2470.6 2649.4 2469.98 2646.58 2468.75 2644.68C2467.52 2642.78 2465.49 2641.84 2462.69 2641.84C2459.89 2641.84 2457.89 2642.78 2456.69 2644.66C2455.49 2646.54 2454.81 2649.39 2454.81 2653.21Z" fill="white"/>
<path d="M2511.27 2633.42C2512.45 2633.4 2513.63 2633.5 2514.79 2633.73L2514.01 2643.52C2513 2643.27 2511.97 2643.15 2510.93 2643.17C2507.59 2643.17 2505 2644.03 2503.14 2645.74C2502.19 2646.67 2501.44 2647.79 2500.96 2649.03C2500.48 2650.27 2500.27 2651.6 2500.35 2652.93V2672.41H2489.9V2634.14H2497.81L2499.35 2640.57H2499.87C2501.02 2638.47 2502.67 2636.69 2504.68 2635.39C2506.63 2634.09 2508.93 2633.41 2511.27 2633.42Z" fill="white"/>
<path d="M2539.07 2673.1C2532.91 2673.1 2528.09 2671.4 2524.62 2668C2521.15 2664.6 2519.41 2659.78 2519.42 2653.55C2519.42 2647.14 2521.02 2642.18 2524.23 2638.67C2527.44 2635.16 2531.87 2633.41 2537.53 2633.42C2542.94 2633.42 2547.15 2634.96 2550.16 2638.04C2553.17 2641.12 2554.68 2645.38 2554.68 2650.81V2655.88H2530C2529.96 2658.45 2530.9 2660.93 2532.63 2662.83C2533.55 2663.7 2534.64 2664.36 2535.83 2664.79C2537.02 2665.22 2538.29 2665.41 2539.55 2665.33C2541.75 2665.34 2543.94 2665.1 2546.09 2664.61C2548.31 2664.07 2550.46 2663.3 2552.52 2662.31V2670.39C2550.66 2671.3 2548.7 2671.98 2546.67 2672.39C2544.17 2672.89 2541.62 2673.12 2539.07 2673.1ZM2537.6 2640.85C2536.63 2640.8 2535.66 2640.96 2534.76 2641.32C2533.86 2641.68 2533.05 2642.24 2532.39 2642.95C2531.03 2644.66 2530.27 2646.77 2530.23 2648.95H2544.89C2544.99 2646.77 2544.28 2644.63 2542.89 2642.95C2542.21 2642.24 2541.39 2641.69 2540.47 2641.32C2539.56 2640.96 2538.58 2640.8 2537.6 2640.85Z" fill="white"/>
<path d="M2597.44 2672.41H2587V2650.06C2587 2647.29 2586.54 2645.21 2585.61 2643.84C2585.13 2643.15 2584.47 2642.59 2583.7 2642.23C2582.94 2641.86 2582.09 2641.71 2581.25 2641.77C2580.1 2641.68 2578.95 2641.91 2577.93 2642.43C2576.9 2642.95 2576.04 2643.74 2575.43 2644.72C2574.22 2646.68 2573.61 2649.91 2573.61 2654.4V2672.4H2563.17V2634.13H2571.17L2572.57 2639.02H2573.15C2574.2 2637.24 2575.75 2635.81 2577.6 2634.9C2579.67 2633.87 2581.97 2633.36 2584.28 2633.41C2590.01 2633.41 2593.89 2635.28 2595.92 2639.02H2596.84C2597.9 2637.21 2599.48 2635.77 2601.38 2634.88C2603.49 2633.88 2605.8 2633.37 2608.14 2633.41C2612.48 2633.41 2615.76 2634.52 2617.99 2636.75C2620.22 2638.98 2621.33 2642.54 2621.32 2647.44V2672.44H2610.85V2650.09C2610.85 2647.32 2610.39 2645.24 2609.46 2643.87C2608.98 2643.18 2608.32 2642.62 2607.55 2642.26C2606.79 2641.89 2605.94 2641.74 2605.1 2641.8C2603.99 2641.73 2602.88 2641.94 2601.87 2642.42C2600.87 2642.9 2600 2643.63 2599.36 2644.54C2598.09 2646.37 2597.46 2649.26 2597.46 2653.24L2597.44 2672.41Z" fill="white"/>
<path d="M2655.51 2672.41H2644.93V2643.41L2645.03 2638.65L2645.2 2633.45C2643.44 2635.2 2642.2 2636.36 2641.54 2636.9L2635.79 2641.53L2630.68 2635.16L2646.81 2622.32H2655.51V2672.41Z" fill="white"/>
<path d="M2704.36 2672.41H2669.36V2665.05L2681.93 2652.35C2685.65 2648.54 2688.08 2645.9 2689.22 2644.42C2690.23 2643.18 2691.05 2641.8 2691.68 2640.33C2692.19 2639.09 2692.44 2637.77 2692.44 2636.43C2692.5 2635.61 2692.39 2634.78 2692.1 2634.01C2691.82 2633.23 2691.36 2632.53 2690.78 2631.95C2689.54 2630.92 2687.95 2630.39 2686.34 2630.47C2684.38 2630.48 2682.45 2630.94 2680.69 2631.81C2678.64 2632.85 2676.73 2634.12 2674.98 2635.61L2669.22 2628.8C2671.11 2627.11 2673.16 2625.62 2675.35 2624.34C2677.03 2623.46 2678.81 2622.78 2680.66 2622.34C2682.77 2621.85 2684.93 2621.61 2687.1 2621.64C2689.95 2621.58 2692.78 2622.17 2695.38 2623.35C2697.66 2624.39 2699.59 2626.05 2700.96 2628.14C2702.3 2630.25 2703 2632.7 2702.96 2635.2C2702.97 2637.42 2702.56 2639.62 2701.74 2641.69C2700.8 2643.93 2699.53 2646.02 2697.98 2647.9C2695.19 2651.13 2692.19 2654.16 2688.98 2656.97L2682.54 2663.03V2663.51H2704.35L2704.36 2672.41Z" fill="white"/>
<path d="M2742.43 2633.55C2742.51 2636.48 2741.5 2639.33 2739.59 2641.55C2737.47 2643.87 2734.67 2645.46 2731.59 2646.07V2646.28C2735.63 2646.78 2738.69 2648.01 2740.77 2649.96C2741.82 2650.98 2742.64 2652.21 2743.17 2653.57C2743.71 2654.93 2743.95 2656.39 2743.88 2657.85C2743.88 2662.66 2742.14 2666.41 2738.65 2669.09C2735.16 2671.77 2730.16 2673.1 2723.65 2673.09C2718.7 2673.18 2713.79 2672.26 2709.21 2670.38V2661.38C2711.25 2662.4 2713.4 2663.2 2715.61 2663.77C2717.86 2664.38 2720.19 2664.69 2722.52 2664.7C2726.02 2664.7 2728.6 2664.11 2730.26 2662.92C2731.93 2661.73 2732.76 2659.83 2732.76 2657.2C2732.83 2656.18 2732.6 2655.15 2732.08 2654.26C2731.57 2653.37 2730.81 2652.66 2729.89 2652.2C2727.97 2651.22 2724.91 2650.73 2720.71 2650.73H2717V2642.62H2720.87C2724.75 2642.62 2727.58 2642.11 2729.38 2641.09C2731.18 2640.07 2732.06 2638.34 2732.06 2635.87C2732.06 2632.08 2729.69 2630.19 2724.94 2630.19C2723.24 2630.2 2721.55 2630.48 2719.94 2631.01C2717.94 2631.71 2716.03 2632.67 2714.27 2633.85L2709.38 2626.56C2714.15 2623.2 2719.88 2621.48 2725.71 2621.63C2730.89 2621.63 2734.98 2622.68 2737.98 2624.78C2739.41 2625.74 2740.57 2627.05 2741.34 2628.59C2742.12 2630.12 2742.5 2631.83 2742.43 2633.55Z" fill="white"/>
<path d="M2806 2646.67C2806.03 2649.74 2805.5 2652.79 2804.42 2655.67C2803.53 2658.17 2802 2660.38 2799.97 2662.09C2798.09 2663.63 2795.73 2664.45 2793.3 2664.42C2791.72 2664.45 2790.16 2664.03 2788.81 2663.2C2787.56 2662.45 2786.58 2661.33 2786 2660H2785.46C2784.33 2661.41 2782.9 2662.54 2781.26 2663.31C2779.63 2664.07 2777.84 2664.45 2776.04 2664.42C2772 2664.42 2768.82 2663.2 2766.49 2660.77C2764.16 2658.34 2763 2655 2763 2650.77C2763 2645.95 2764.53 2642.07 2767.59 2639.13C2770.65 2636.19 2774.65 2634.72 2779.59 2634.71C2781.77 2634.73 2783.94 2634.92 2786.08 2635.28C2788.06 2635.57 2790.01 2636.02 2791.91 2636.63L2791.13 2653.37C2791.13 2656.54 2791.99 2658.13 2793.73 2658.13C2795.19 2658.13 2796.35 2657.06 2797.22 2654.93C2798.18 2652.25 2798.62 2649.41 2798.52 2646.56C2798.59 2643.17 2797.8 2639.82 2796.23 2636.82C2794.77 2634.07 2792.52 2631.82 2789.77 2630.36C2786.84 2628.84 2783.57 2628.08 2780.27 2628.14C2776.09 2628.04 2771.96 2629.02 2768.27 2630.98C2764.89 2632.85 2762.15 2635.71 2760.44 2639.18C2758.56 2643.03 2757.63 2647.28 2757.72 2651.56C2757.72 2657.86 2759.4 2662.69 2762.77 2666.06C2766.14 2669.43 2771.02 2671.11 2777.41 2671.11C2780.1 2671.09 2782.77 2670.82 2785.41 2670.3C2788.32 2669.76 2791.19 2668.98 2793.97 2667.96V2674.53C2788.82 2676.66 2783.29 2677.72 2777.71 2677.64C2769.04 2677.64 2762.28 2675.36 2757.43 2670.8C2752.58 2666.24 2750.15 2659.91 2750.15 2651.8C2750.08 2646.45 2751.36 2641.17 2753.87 2636.45C2756.29 2631.91 2759.95 2628.15 2764.44 2625.63C2769.27 2622.96 2774.72 2621.6 2780.24 2621.71C2784.91 2621.63 2789.53 2622.69 2793.7 2624.79C2797.54 2626.75 2800.72 2629.79 2802.84 2633.55C2805.02 2637.57 2806.11 2642.1 2806 2646.67ZM2771 2651C2771 2655.81 2772.96 2658.22 2776.89 2658.22C2777.79 2658.27 2778.69 2658.1 2779.51 2657.72C2780.33 2657.35 2781.04 2656.77 2781.58 2656.05C2782.65 2654.6 2783.3 2652.25 2783.53 2648.98L2783.98 2641.41C2782.68 2641.15 2781.36 2641.02 2780.04 2641.03C2778.8 2640.96 2777.56 2641.16 2776.41 2641.63C2775.26 2642.09 2774.23 2642.79 2773.38 2643.7C2771.7 2645.75 2770.85 2648.35 2771 2651Z" fill="white"/>
<path d="M2814.53 2624.24C2814.53 2620.84 2816.43 2619.14 2820.22 2619.14C2824 2619.14 2825.9 2620.84 2825.9 2624.24C2825.94 2624.93 2825.83 2625.63 2825.59 2626.28C2825.34 2626.93 2824.97 2627.52 2824.48 2628.02C2823.29 2629.01 2821.76 2629.5 2820.22 2629.38C2816.43 2629.38 2814.54 2627.67 2814.53 2624.24ZM2825.42 2672.41H2815V2634.14H2825.44L2825.42 2672.41Z" fill="white"/>
<path d="M2857.4 2673.1C2855.37 2673.19 2853.35 2672.79 2851.51 2671.94C2849.67 2671.09 2848.06 2669.8 2846.82 2668.2H2846.27C2846.64 2671.4 2846.82 2673.2 2846.82 2673.75V2689.26H2836.38V2634.14H2844.87L2846.34 2639.14H2846.82C2849.26 2635.35 2852.88 2633.46 2857.67 2633.46C2859.74 2633.38 2861.79 2633.82 2863.64 2634.73C2865.49 2635.65 2867.09 2637.01 2868.28 2638.7C2870.84 2642.19 2872.12 2647.04 2872.12 2653.25C2872.2 2656.88 2871.59 2660.49 2870.32 2663.89C2869.33 2666.64 2867.55 2669.03 2865.2 2670.77C2862.91 2672.36 2860.18 2673.17 2857.4 2673.1ZM2854.32 2641.77C2851.74 2641.77 2849.85 2642.56 2848.67 2644.15C2847.49 2645.74 2846.86 2648.36 2846.82 2652.01V2653.14C2846.82 2657.25 2847.43 2660.2 2848.65 2661.97C2849.87 2663.74 2851.8 2664.63 2854.45 2664.64C2859.12 2664.64 2861.45 2660.78 2861.45 2653.07C2861.45 2649.3 2860.87 2646.48 2859.72 2644.59C2859.16 2643.67 2858.36 2642.93 2857.41 2642.43C2856.46 2641.93 2855.39 2641.7 2854.32 2641.77Z" fill="white"/>
<path d="M2907.45 2661.05C2907.45 2664.97 2906.09 2667.97 2903.36 2670.05C2900.63 2672.13 2896.55 2673.16 2891.12 2673.13C2888.73 2673.16 2886.35 2672.97 2884 2672.56C2882.11 2672.21 2880.26 2671.65 2878.49 2670.9V2662.27C2880.59 2663.25 2882.79 2664.02 2885.04 2664.57C2887.13 2665.14 2889.29 2665.44 2891.46 2665.49C2895.25 2665.49 2897.14 2664.4 2897.15 2662.21C2897.16 2661.84 2897.1 2661.48 2896.97 2661.13C2896.84 2660.79 2896.64 2660.48 2896.39 2660.21C2895.61 2659.51 2894.74 2658.92 2893.79 2658.47C2892.56 2657.82 2890.91 2657.06 2888.86 2656.19C2886.57 2655.31 2884.39 2654.16 2882.37 2652.77C2881.09 2651.83 2880.06 2650.58 2879.37 2649.15C2878.7 2647.57 2878.38 2645.86 2878.43 2644.15C2878.37 2642.61 2878.69 2641.07 2879.38 2639.69C2880.08 2638.31 2881.11 2637.13 2882.38 2636.26C2885.05 2634.4 2888.78 2633.47 2893.59 2633.47C2898.24 2633.47 2902.84 2634.5 2907.05 2636.47L2903.9 2644C2901.98 2643.18 2900.19 2642.51 2898.52 2642C2896.87 2641.48 2895.15 2641.21 2893.42 2641.21C2890.34 2641.21 2888.8 2642.05 2888.8 2643.71C2888.82 2644.21 2888.97 2644.69 2889.23 2645.12C2889.49 2645.54 2889.86 2645.9 2890.29 2646.14C2892.37 2647.35 2894.55 2648.37 2896.81 2649.19C2899.13 2650.05 2901.34 2651.19 2903.39 2652.58C2904.69 2653.52 2905.75 2654.77 2906.47 2656.21C2907.15 2657.73 2907.49 2659.38 2907.45 2661.05Z" fill="white"/>
<path d="M2942.71 2672.41L2941.31 2667.52H2940.76C2939.61 2669.33 2937.95 2670.76 2936 2671.64C2933.8 2672.64 2931.41 2673.14 2929 2673.1C2924.5 2673.1 2921.11 2671.9 2918.83 2669.49C2916.55 2667.08 2915.41 2663.62 2915.4 2659.09V2634.09H2925.85V2656.44C2925.85 2659.2 2926.34 2661.28 2927.32 2662.66C2927.87 2663.37 2928.58 2663.93 2929.4 2664.29C2930.22 2664.65 2931.12 2664.81 2932.01 2664.73C2934.93 2664.73 2937.04 2663.75 2938.34 2661.8C2939.64 2659.85 2940.31 2656.61 2940.34 2652.09V2634.09H2950.79V2672.36L2942.71 2672.41Z" fill="white"/>
<path d="M2996 2672.41H2985.56V2650.06C2985.56 2647.29 2985.1 2645.21 2984.17 2643.84C2983.69 2643.15 2983.03 2642.59 2982.26 2642.23C2981.5 2641.86 2980.65 2641.71 2979.81 2641.77C2978.66 2641.68 2977.52 2641.91 2976.49 2642.43C2975.46 2642.95 2974.6 2643.74 2973.99 2644.72C2972.78 2646.68 2972.17 2649.91 2972.17 2654.4V2672.4H2961.73V2634.13H2969.73L2971.13 2639.02H2971.71C2972.76 2637.24 2974.31 2635.81 2976.16 2634.9C2978.23 2633.87 2980.53 2633.36 2982.84 2633.41C2988.57 2633.41 2992.45 2635.28 2994.48 2639.02H2995.4C2996.46 2637.21 2998.04 2635.77 2999.94 2634.88C3002.05 2633.88 3004.36 2633.37 3006.7 2633.41C3011.04 2633.41 3014.32 2634.52 3016.55 2636.75C3018.78 2638.98 3019.89 2642.54 3019.88 2647.44V2672.44H3009.41V2650.09C3009.41 2647.32 3008.95 2645.24 3008.02 2643.87C3007.54 2643.18 3006.88 2642.62 3006.11 2642.26C3005.35 2641.89 3004.5 2641.74 3003.66 2641.8C3002.55 2641.73 3001.44 2641.94 3000.43 2642.42C2999.43 2642.9 2998.56 2643.63 2997.92 2644.54C2996.65 2646.37 2996.02 2649.26 2996.02 2653.24L2996 2672.41Z" fill="white"/>
<path opacity="0.1" d="M3750.14 3110.72H3706.69V3032C3706.69 2974.85 3685.28 2923.1 3650.69 2885.65C3616.1 2848.2 3568.23 2825 3515.41 2825C3409.77 2825 3324.13 2917.66 3324.13 3032V3110.75H3280.68C3244.39 3110.75 3214.96 3142.59 3214.96 3181.86V3564.65C3214.96 3603.92 3244.39 3635.76 3280.68 3635.76H3750.14C3786.44 3635.76 3815.86 3603.92 3815.86 3564.65V3181.83C3815.86 3142.56 3786.44 3110.72 3750.14 3110.72ZM3366.14 3110.72V3032C3366.14 2942.93 3433.14 2870.46 3515.43 2870.46C3597.72 2870.46 3664.7 2942.9 3664.7 3032V3110.75L3366.14 3110.72Z" fill="black"/>
<path d="M3843.86 3181.83V3564.62C3843.86 3603.89 3814.44 3635.73 3778.14 3635.73H3308.68C3272.39 3635.73 3242.96 3603.89 3242.96 3564.62V3181.83C3242.96 3142.56 3272.39 3110.72 3308.68 3110.72H3778.14C3814.44 3110.72 3843.86 3142.56 3843.86 3181.83Z" fill="#FDB606"/>
<path d="M3678.67 2885.62C3644.05 2848.16 3596.23 2825 3543.41 2825C3437.77 2825 3352.13 2917.66 3352.13 3032V3110.75H3394.13V3032C3394.13 2942.93 3461.13 2870.46 3543.42 2870.46C3625.71 2870.46 3692.7 2942.9 3692.7 3032V3110.75H3734.7V3032C3734.69 2974.82 3713.28 2923.08 3678.67 2885.62Z" fill="#FDB606"/>
<path d="M3587.27 3248.54C3587.27 3222.05 3567.42 3200.54 3542.94 3200.54C3518.46 3200.54 3498.62 3222.01 3498.62 3248.54C3498.62 3265.97 3507.22 3281.23 3520.08 3289.63V3369.27C3520.06 3369.77 3520.13 3370.28 3520.3 3370.75C3520.47 3371.22 3520.74 3371.66 3521.08 3372.03C3521.42 3372.4 3521.83 3372.7 3522.28 3372.92C3522.74 3373.13 3523.24 3373.25 3523.74 3373.27H3528.09C3528.97 3373.31 3529.8 3373.69 3530.4 3374.34C3531 3374.98 3531.31 3375.84 3531.28 3376.72V3385.97C3531.31 3386.85 3531 3387.71 3530.4 3388.35C3529.8 3389 3528.97 3389.38 3528.09 3389.42H3521.7C3521.25 3389.44 3520.83 3389.63 3520.53 3389.96C3520.23 3390.29 3520.06 3390.72 3520.08 3391.17V3394.74C3520.06 3395.19 3520.23 3395.62 3520.53 3395.95C3520.83 3396.28 3521.25 3396.47 3521.7 3396.49H3524.36C3525.24 3396.53 3526.07 3396.91 3526.67 3397.56C3527.27 3398.2 3527.58 3399.06 3527.55 3399.94V3409.19C3527.58 3410.07 3527.27 3410.93 3526.67 3411.57C3526.07 3412.22 3525.24 3412.6 3524.36 3412.64H3521.63C3521.2 3412.66 3520.8 3412.85 3520.51 3413.16C3520.22 3413.47 3520.06 3413.89 3520.08 3414.32V3418C3520.06 3418.43 3520.22 3418.85 3520.51 3419.16C3520.8 3419.47 3521.2 3419.66 3521.63 3419.68H3528.09C3528.97 3419.72 3529.8 3420.1 3530.4 3420.75C3531 3421.39 3531.31 3422.25 3531.28 3423.13V3432.38C3531.31 3433.26 3531 3434.12 3530.4 3434.76C3529.8 3435.41 3528.97 3435.79 3528.09 3435.83H3523.73C3522.72 3435.87 3521.77 3436.31 3521.09 3437.05C3520.4 3437.79 3520.04 3438.77 3520.08 3439.78C3520.08 3452.13 3528.96 3462.67 3540.36 3463.08C3552.28 3463.51 3562.07 3453.18 3562.07 3440.38V3291.81C3577 3284.08 3587.27 3267.61 3587.27 3248.54Z" fill="white"/>
<path opacity="0.1" d="M2078.4 3574.28C2076.33 3576.28 2074.24 3578.28 2072.1 3580.22C2030.48 3618.22 1976.84 3641 1916.5 3641H1415.65C1355.32 3641 1301.65 3618.2 1260.06 3580.22C1257.92 3578.29 1255.83 3576.3 1253.76 3574.28C1195.43 3517.23 1162.7 3429.28 1171.58 3333.53L1187.58 3161.09C1189.82 3136.88 1193.9 3112.88 1199.77 3089.29C1200.69 3085.58 1201.66 3081.88 1202.68 3078.21C1207.04 3062.34 1212.23 3046.7 1218.23 3031.37C1218.79 3029.9 1219.37 3028.44 1219.97 3026.99C1255.51 2938.67 1316.66 2863.01 1395.56 2809.72C1474.45 2756.44 1567.48 2727.97 1662.68 2727.99H1669.52C1776.19 2728 1879.77 2763.74 1963.75 2829.52C2047.72 2895.29 2107.24 2987.29 2132.81 3090.85C2133.29 3092.78 2133.76 3094.72 2134.2 3096.66C2134.45 3097.66 2134.69 3098.75 2134.92 3099.79C2134.92 3099.91 2134.98 3100.04 2135 3100.16C2139.51 3120.24 2142.72 3140.59 2144.62 3161.08L2160.62 3333.52C2169.46 3429.33 2136.73 3517.23 2078.4 3574.28Z" fill="black"/>
<path d="M2064.4 3574.28C2062.33 3576.28 2060.24 3578.28 2058.1 3580.22C2016.48 3618.22 1962.84 3641 1902.5 3641H1401.65C1341.32 3641 1287.65 3618.2 1246.06 3580.22C1243.92 3578.29 1241.83 3576.3 1239.76 3574.28C1181.43 3517.23 1148.7 3429.28 1157.58 3333.53L1173.58 3161.09C1175.82 3136.88 1179.9 3112.88 1185.77 3089.29C1186.69 3085.58 1187.66 3081.88 1188.68 3078.21C1193.04 3062.34 1198.23 3046.7 1204.23 3031.37C1204.79 3029.9 1205.37 3028.44 1205.97 3026.99C1241.51 2938.67 1302.66 2863.01 1381.56 2809.72C1460.45 2756.44 1553.48 2727.97 1648.68 2727.99H1655.52C1762.19 2728 1865.77 2763.74 1949.75 2829.52C2033.72 2895.29 2093.24 2987.29 2118.81 3090.85C2119.29 3092.78 2119.76 3094.72 2120.2 3096.66C2120.45 3097.66 2120.69 3098.75 2120.92 3099.79C2120.92 3099.91 2120.98 3100.04 2121 3100.16C2125.51 3120.24 2128.72 3140.59 2130.62 3161.08L2146.62 3333.52C2155.46 3429.33 2122.73 3517.23 2064.4 3574.28Z" fill="#ACBCF8"/>
<path opacity="0.1" d="M2025.44 3431.54C2028.67 3429.7 2031.41 3427.12 2033.44 3424C2097.31 3317.5 1851.25 3301 1652.44 3266C1379.44 3218 1286.57 3369.19 1286.57 3401.5C1286.57 3405.26 1288.8 3409.02 1293.04 3412.72C1249.17 3463.81 1239.44 3527.03 1239.75 3574.28C1241.82 3576.28 1243.91 3578.28 1246.05 3580.22C1249.94 3490.42 1279.48 3435.62 1294.16 3413.65C1328.55 3441.26 1475.79 3464.97 1652.07 3460C1867.99 3453.91 1984.14 3452.14 2021.73 3433.58C2036.73 3462.15 2055.08 3510.69 2058.09 3580.22C2060.23 3578.29 2062.32 3576.3 2064.39 3574.28C2064.68 3532.68 2057.17 3478.72 2025.44 3431.54Z" fill="black"/>
<g opacity="0.1">
<path d="M2060.11 3158.91C2059.78 3158.42 2059.4 3157.97 2058.98 3157.56C2057.77 3156.35 2056.43 3155.28 2054.98 3154.37C2035.33 3138.48 2000.27 3126.29 1938.12 3129.21C1682.12 3241.99 1474.18 3174.33 1375.12 3125.62C1340.65 3117.4 1274.39 3105.25 1234.79 3121.35C1216.48 3126.43 1207.62 3138.7 1204.38 3153.84C1202.54 3161.63 1202.15 3169.7 1203.22 3177.63C1204.75 3196.45 1210.96 3216.19 1216.58 3230.82C1222.2 3245.45 1234.31 3259 1251.32 3269.52C1276.12 3284.86 1301.61 3298.92 1327.32 3311.81C1316.86 3316.63 1307.9 3324.22 1303.54 3336.1C1303.54 3336.1 1302.48 3436.34 1344.7 3443.16C1344.7 3443.16 1380.59 3447.26 1403.8 3429.52L1538.9 3412.52L1589.3 3408.77C1686.8 3434.56 1756.3 3443.2 1756.3 3443.2C1755.03 3442.65 1753.85 3442.06 1752.74 3441.45L1756.83 3442.86L1758.25 3435.27L1807 3440C1806.74 3440.36 1806.47 3440.7 1806.19 3441C1802.94 3444.89 1807.47 3449.6 1814.3 3449.59L1956.89 3449.29C1956.89 3449.29 2038.16 3465.66 2053.99 3396.78C2053.99 3396.78 2061.78 3336.93 1986.41 3316.52C2089.14 3275.8 2078.27 3224.25 2078.27 3224.25C2078.68 3220.01 2078.9 3216 2078.96 3212.19C2078.96 3212.19 2084.59 3182.8 2060.11 3158.91ZM2002.72 3097.32C1983.39 3107.88 1964.31 3117.4 1945.5 3125.89L1969.9 3117.7C1983.85 3113.05 1995.19 3105.92 2002.74 3097.35L2002.72 3097.32Z" fill="black"/>
<path d="M2012.58 3077.79C2011.19 3085.1 2007.78 3091.88 2002.74 3097.35C1983.41 3107.91 1964.33 3117.43 1945.52 3125.92L1935.29 3129.36L1938.14 3129.21C1682.14 3241.99 1474.2 3174.33 1375.14 3125.62C1388.83 3128.88 1397.5 3131.51 1397.5 3131.51L1427.58 3135.25L1388.5 3122.12C1364.92 3114.2 1348.76 3099.25 1345.85 3082.18C1343.26 3066.99 1344.91 3045.35 1357.19 3015.18L1380.41 2901.29C1380.41 2901.29 1371.47 2837.7 1408.71 2792.64C1481.55 2750.2 1564.36 2727.89 1648.66 2728H1655.5C1774.42 2727.89 1889.08 2772.3 1976.9 2852.49C1979.23 2867.19 1979.61 2882.13 1978.02 2896.92L2001.24 3010.81C2013.52 3041 2015.16 3062.59 2012.58 3077.79Z" fill="black"/>
<path opacity="0.13" d="M1594.23 2615.23C1593.68 2614.22 1593.29 2613.13 1593.08 2612L1594.23 2615.23Z" fill="black"/>
</g>
<path opacity="0.67" d="M1736.46 3385.84L1761.15 3396.47L1753.95 3435.03L1711.77 3420.4L1736.46 3385.84Z" fill="#050505"/>
<path d="M1392.31 3300.41C1392.31 3300.41 1326.46 3291.77 1312.06 3330.99C1312.06 3330.99 1311.06 3428.71 1352.19 3435.36C1352.19 3435.36 1387.19 3439.36 1409.8 3422.07L1541.49 3405.45L1631 3398.8L1392.31 3300.41Z" fill="#040C2B"/>
<path d="M1787.9 3347.28C1787.9 3347.28 1822.46 3408.81 1802.01 3433.28C1798.84 3437.07 1803.26 3441.66 1809.92 3441.65L1948.92 3441.36C1948.92 3441.36 2028.14 3457.36 2043.57 3390.18C2043.57 3390.18 2052.83 3319.05 1952 3307.08C1851.17 3295.11 1951 3303.08 1951 3303.08C1951 3303.08 1833.69 3312.38 1787.9 3347.28Z" fill="#040C2B"/>
<path d="M1843 3350.27L1842.62 3354.21L1834.77 3435.36L1688.15 3421.07L1736.41 3351.17L1737.03 3350.27C1843 3352.93 1843 3350.27 1843 3350.27Z" fill="#DE995F"/>
<path opacity="0.38" d="M1843 3350.27L1842.62 3354.21L1765.32 3356.59L1736.41 3351.17L1737.03 3350.27C1843 3352.93 1843 3350.27 1843 3350.27Z" fill="#050505"/>
<path d="M2067.91 3210.21L1897.19 3246.93L1673.19 3295.09L1495.26 3249.25L1214.26 3176.86C1201.42 3070.07 1403.59 3131.56 1403.59 3131.56L1535.21 3147.9L1612.42 3157.49L1787.33 3184.08L1842.89 3159.74L1908.73 3130.9C2086.27 3113.94 2067.91 3210.21 2067.91 3210.21Z" fill="#081956"/>
<path opacity="0.3" d="M1897.19 3246.93L1673.19 3295.09L1495.26 3249.25L1446.84 3217.32L1535.25 3147.9H1535.27L1612.48 3157.49L1787.39 3184.08L1842.95 3159.74L1897.19 3246.93Z" fill="black"/>
<path d="M1423.18 3331.66L1664.96 3261.86C1664.96 3261.86 1837.8 3190.73 1867.64 3194.71C1867.64 3194.71 2081.64 3073.06 2067.24 3221.97C2067.24 3221.97 2091.93 3338.97 1710.24 3356.97L1423.18 3331.66Z" fill="#081956"/>
<path opacity="0.13" d="M1589.34 3283.46L1616.09 3274.82C1636.33 3289.75 1674.37 3302.18 1699.42 3314.71C1730.04 3329.82 1762.09 3341.84 1795.1 3350.6L1730.29 3359.25L1589.34 3283.46Z" fill="black"/>
<path d="M1776.59 3352.6C1776.59 3352.6 1706.11 3414.75 1753.44 3435.36C1753.44 3435.36 1479.93 3401.36 1261.15 3266.09C1244.57 3255.84 1232.81 3242.76 1227.28 3228.37C1207.28 3176.2 1179.56 3057.54 1395.4 3158.82C1395.4 3158.82 1563.06 3221.82 1618.32 3276.12C1629.59 3287.09 1642.27 3296.51 1656.03 3304.12C1690.61 3323.39 1749.24 3353.5 1776.59 3352.6Z" fill="#081956"/>
<path d="M1609.4 2662.65L1736.98 2662.9L1778.13 2748.65C1778.13 2748.65 1697.88 2882.94 1582.65 2763.28C1587.77 2744.01 1604.79 2715.74 1609.91 2696.47C1618.14 2676.53 1617.11 2677.85 1609.4 2662.65Z" fill="#CC8B5B"/>
<path d="M1764.25 2719.07C1736.98 2737.46 1714.53 2749.07 1696.04 2755.59C1684.67 2759.59 1674.79 2761.73 1666.22 2762.35C1647.75 2763.72 1635.3 2758.15 1626.93 2749.74C1612.37 2743.21 1595.74 2733.92 1576.69 2721.25C1524.75 2737.11 1419.37 2772.56 1428.5 2796.86L1438.92 2889.22L1439.77 2896.75L1457.02 3049.55L1472.96 3049.38L1472.55 3051.13L1666.22 3053.19L1911.87 3055.78L1940.4 2802.91C1952.46 2770.76 1764.25 2719.07 1764.25 2719.07Z" fill="white"/>
<path d="M1695.23 2755.74V3047L1471 3049.38C1474.81 3032.91 1503.82 2905.72 1493.24 2898.9L1437.82 2896.75L1436.97 2889.22L1426.55 2796.86C1417.42 2772.56 1522.79 2737.11 1574.73 2721.25C1591.5 2716.14 1602.73 2713.07 1602.73 2713.07C1623.01 2726.77 1640.63 2736.66 1655.94 2743.53C1670.7 2750.15 1683.33 2753.96 1694.12 2755.59L1695.23 2755.74Z" fill="white"/>
<path d="M1505.28 3072.69L1496.28 3156.47L1394.86 3122.41C1371.86 3114.68 1356.11 3100.11 1353.28 3083.47C1350.75 3068.66 1352.36 3047.57 1364.28 3018.18L1386.91 2907.18C1386.91 2907.18 1376.11 2830.4 1428.58 2787.18C1428.58 2787.18 1447.58 2914.48 1481.58 2935.76L1488.78 3042.12L1505.28 3072.69Z" fill="white"/>
<path opacity="0.13" d="M1496.53 3069.7C1496.53 3069.7 1458.9 3043.11 1413.73 3040.45C1413.73 3040.45 1423.73 3034.45 1451.37 3040.45C1451.37 3040.45 1426.28 3026.45 1397.42 3031.81C1397.42 3031.81 1457.64 3011.2 1496.53 3069.7Z" fill="black"/>
<path opacity="0.13" d="M1482.13 2935.41C1482.13 2935.41 1413.2 2878.24 1415.26 2848.99C1415.26 2848.99 1433.77 2874.92 1438.92 2879.57C1438.92 2879.57 1413.2 2844.34 1423.49 2830.38C1423.49 2830.38 1437.84 2874.63 1448.67 2875.44L1482.13 2935.41Z" fill="black"/>
<path opacity="0.13" d="M1482.64 2935.08C1482.64 2935.08 1431.2 2823.4 1441.49 2817.42C1441.49 2817.42 1443.55 2839.35 1482.64 2935.08Z" fill="black"/>
<path d="M1851.18 3068.41L1860.18 3152.19L1961.6 3118.12C1984.6 3110.4 2000.34 3095.83 2003.18 3079.19C2005.7 3064.38 2004.1 3043.29 1992.18 3013.9L1969.54 2902.9C1969.54 2902.9 1980.35 2826.12 1927.88 2782.9C1927.88 2782.9 1908.88 2910.2 1874.88 2931.48L1867.68 3037.84L1851.18 3068.41Z" fill="white"/>
<path opacity="0.13" d="M1608.88 2694.47C1608.88 2694.47 1669.94 2792.03 1750.01 2690.07L1725.14 2649.93L1623.8 2662.67L1608.88 2694.47Z" fill="black"/>
<path d="M1582.65 2524.63C1582.65 2524.63 1699.94 2453.49 1747.26 2515.98C1747.26 2515.98 1845 2625.67 1692.73 2724.06C1692.73 2724.06 1594 2772.58 1582.65 2524.63Z" fill="#DE995F"/>
<path d="M1595.37 2628.3L1575.37 2571.8C1568.37 2558.8 1574.47 2514.91 1575.37 2501.16C1578.21 2458.16 1658.53 2424.1 1727.76 2441.53C1727.76 2441.53 1793.89 2454.07 1784.34 2582.46L1760.68 2639.63C1760.68 2639.63 1763.77 2536.63 1727.76 2531.27C1727.76 2531.27 1645.45 2551.22 1591.95 2549.89C1591.91 2549.89 1590.36 2620.68 1595.37 2628.3Z" fill="black"/>
<path d="M1623.8 2616.36C1639.14 2616.36 1651.58 2608.32 1651.58 2598.41C1651.58 2588.5 1639.14 2580.46 1623.8 2580.46C1608.46 2580.46 1596.02 2588.5 1596.02 2598.41C1596.02 2608.32 1608.46 2616.36 1623.8 2616.36Z" stroke="black" stroke-width="2.04" stroke-miterlimit="10"/>
<path d="M1708.17 2613.71C1723.51 2613.71 1735.95 2605.67 1735.95 2595.76C1735.95 2585.85 1723.51 2577.81 1708.17 2577.81C1692.83 2577.81 1680.39 2585.85 1680.39 2595.76C1680.39 2605.67 1692.83 2613.71 1708.17 2613.71Z" stroke="black" stroke-width="2.04" stroke-miterlimit="10"/>
<path d="M1651.28 2595.76C1651.28 2595.76 1663.93 2605.06 1680.39 2595.76" stroke="black" stroke-width="2.04" stroke-miterlimit="10"/>
<path d="M1596.02 2598.41L1582.13 2588.11" stroke="black" stroke-width="2.04" stroke-miterlimit="10"/>
<path d="M1735.95 2595.76L1770.93 2591.1" stroke="black" stroke-width="2.04" stroke-miterlimit="10"/>
<path opacity="0.13" d="M1859.92 3065.42C1859.92 3065.42 1890.79 3038.83 1927.83 3036.17C1927.83 3036.17 1919.6 3030.17 1896.96 3036.17C1896.96 3036.17 1917.54 3022.17 1941.2 3027.52C1941.2 3027.52 1891.82 3006.92 1859.92 3065.42Z" fill="black"/>
<path d="M1440.67 2983.32L1874.84 2977.33V3190.81L1449.93 3196.04L1440.67 2983.32Z" fill="#0F31AC"/>
<path d="M1658.27 3129.24C1685.54 3129.24 1707.65 3114.95 1707.65 3097.33C1707.65 3079.71 1685.54 3065.42 1658.27 3065.42C1631 3065.42 1608.89 3079.71 1608.89 3097.33C1608.89 3114.95 1631 3129.24 1658.27 3129.24Z" fill="#0F31AC"/>
<path opacity="0.13" d="M1459.7 3185.08C1459.7 3185.08 1390.79 3137.48 1265.25 3123.25C1265.25 3123.25 1328.01 3118.6 1465.87 3171.11L1459.7 3185.08Z" fill="black"/>
<path opacity="0.13" d="M1875.36 3191.06C1875.36 3191.06 1999.91 3120.49 2049.52 3158.27C2049.52 3158.27 2023.52 3116.6 1859.92 3187.07L1875.36 3191.06Z" fill="black"/>
<path opacity="0.13" d="M1874.33 2931.13C1874.33 2931.13 1943.26 2873.96 1941.2 2844.71C1941.2 2844.71 1922.68 2870.64 1917.54 2875.29C1917.54 2875.29 1943.26 2840.06 1932.97 2826.1C1932.97 2826.1 1918.61 2870.35 1907.79 2871.16L1874.33 2931.13Z" fill="black"/>
<path opacity="0.13" d="M1873.81 2930.8C1873.81 2930.8 1925.25 2819.12 1914.97 2813.14C1915 2813.14 1912.91 2835.07 1873.81 2930.8Z" fill="black"/>
<path d="M1927.28 3156.82C1924.77 3159.13 1922.24 3161.5 1919.71 3163.95C1920.25 3163.39 1922.85 3160.76 1927.28 3156.82Z" fill="black"/>
<g opacity="0.1">
<path d="M2121 3100.17C2027.37 3077.47 1951.39 3135.48 1927.48 3156.67C2015.28 3076.27 2086.85 3085.24 2120.2 3096.67C2120.45 3097.67 2120.69 3098.76 2120.92 3099.8C2120.93 3099.92 2121 3100.05 2121 3100.17Z" fill="black"/>
<path d="M1435.91 3177C1345.48 3082.71 1251.33 3045.23 1204.21 3031.41C1204.77 3029.94 1205.35 3028.48 1205.95 3027.03C1323.32 3048 1432.24 3172.71 1435.91 3177Z" fill="black"/>
</g>
<path d="M3234.56 933.38L3034.83 937.45C3029.55 937.559 3024.31 936.627 3019.39 934.708C3014.48 932.79 3009.99 929.921 3006.18 926.267C3002.37 922.613 2999.32 918.245 2997.2 913.412C2995.08 908.579 2993.94 903.376 2993.83 898.1L2990.28 723.79C2990.17 718.514 2991.1 713.268 2993.02 708.352C2994.94 703.436 2997.81 698.947 3001.46 695.139C3005.12 691.332 3009.48 688.282 3014.32 686.163C3019.15 684.044 3024.35 682.898 3029.63 682.79L3229.36 678.72C3234.64 678.611 3239.88 679.543 3244.8 681.461C3249.71 683.38 3254.2 686.249 3258.01 689.903C3261.82 693.557 3264.87 697.925 3266.99 702.758C3269.11 707.591 3270.25 712.794 3270.36 718.07L3273.91 892.38C3274.02 897.656 3273.09 902.903 3271.17 907.819C3269.25 912.736 3266.38 917.226 3262.73 921.034C3259.08 924.841 3254.71 927.891 3249.87 930.01C3245.04 932.128 3239.84 933.273 3234.56 933.38Z" fill="#DEE4FC"/>
<path d="M3218.17 849.48L3217.46 862.48V862.74H3217.52L3223.52 864.74C3222.47 868.584 3220.86 872.25 3218.73 875.62C3218.7 875.68 3218.66 875.737 3218.62 875.79L3216.32 874.67L3212.53 872.81L3204.7 883.26L3207.48 887.2C3204.21 889.387 3200.59 891.022 3196.79 892.04L3195.55 885.9L3182.98 885.65L3181.08 892.65C3176.92 891.853 3172.94 890.315 3169.32 888.11L3172.97 881.97L3164.4 872.26L3157.4 876.48H3157.34L3156.85 875.71C3154.07 871.274 3152.19 866.338 3151.31 861.18L3157.46 859.81L3158.16 846.51L3151.81 844.51C3152.9 839.846 3154.81 835.413 3157.45 831.42L3163.97 835.32L3172.77 825.77L3169.28 819.9C3173.83 817.081 3178.96 815.321 3184.28 814.75L3185.67 822.66L3198.22 823.28L3200.22 816.73C3201.35 816.26 3208.22 820.57 3211.54 823.48L3207.49 829.39L3215.9 839.63L3221.31 836.63C3222.98 840.271 3224.09 844.14 3224.62 848.11L3218.17 849.48ZM3188.38 829.07C3183.73 828.97 3179.17 830.316 3175.32 832.92C3173.97 833.826 3172.72 834.869 3171.58 836.03C3167.04 840.733 3164.44 846.973 3164.3 853.508C3164.15 860.042 3166.48 866.39 3170.8 871.29C3172.87 873.635 3175.41 875.526 3178.25 876.841C3181.09 878.156 3184.17 878.867 3187.3 878.93C3190.43 878.993 3193.54 878.406 3196.43 877.206C3199.32 876.007 3201.93 874.22 3204.09 871.96C3208.63 867.257 3211.23 861.017 3211.37 854.482C3211.52 847.948 3209.2 841.6 3204.87 836.7C3204.42 836.21 3203.97 835.7 3203.49 835.3C3199.41 831.406 3194.02 829.183 3188.38 829.07Z" fill="white"/>
<path d="M3207.33 764.05L3206.54 779.35V779.65H3206.61L3213.15 782.03C3212 786.513 3210.23 790.811 3207.89 794.8L3207.77 795.01L3205.25 793.69L3201.11 791.52L3192.54 803.8L3195.54 808.41C3191.99 810.961 3188.04 812.885 3183.84 814.1L3182.49 806.91L3168.75 806.63L3166.66 814.78C3162.08 813.845 3157.72 812.046 3153.81 809.48L3157.81 802.27L3148.46 790.9L3140.81 795.9H3140.74L3140.21 795C3137.18 789.75 3135.15 783.987 3134.21 778L3140.94 776.38L3141.73 760.78L3134.79 758.47C3135.97 753.033 3138.06 747.836 3140.98 743.1L3148.1 747.66L3157.74 736.45L3153.94 729.56C3158.85 726.271 3164.48 724.194 3170.35 723.5L3171.85 732.77L3185.58 733.49L3187.75 725.8C3188.99 725.25 3196.48 730.29 3200.11 733.69L3195.68 740.69L3204.86 752.69L3210.78 749.18C3212.6 753.476 3213.81 758.007 3214.38 762.64L3207.33 764.05ZM3174.8 740.15C3169.67 740.06 3164.65 741.655 3160.51 744.69C3159.02 745.765 3157.65 746.991 3156.41 748.35C3151.41 754.032 3148.58 761.296 3148.41 768.862C3148.24 776.428 3150.75 783.811 3155.49 789.71C3157.65 792.437 3160.39 794.652 3163.5 796.198C3166.62 797.744 3170.04 798.582 3173.52 798.653C3176.99 798.724 3180.44 798.025 3183.62 796.607C3186.8 795.189 3189.62 793.086 3191.89 790.45C3196.89 784.766 3199.72 777.5 3199.89 769.933C3200.06 762.365 3197.55 754.981 3192.81 749.08C3192.33 748.51 3191.81 747.96 3191.31 747.44C3186.98 742.93 3181.05 740.311 3174.8 740.15Z" fill="white"/>
<path d="M3140.19 819.92L3139.1 841V841.42H3139.2L3148.2 844.71C3146.62 850.88 3144.19 856.797 3140.97 862.29C3140.97 862.39 3140.86 862.48 3140.8 862.58L3137.34 860.76L3131.65 857.76L3119.86 874.67L3124 881C3119.13 884.509 3113.69 887.161 3107.92 888.84L3106 879L3087.11 878.62L3084.24 889.85C3077.94 888.558 3071.94 886.081 3066.57 882.55L3072.07 872.61L3059.21 856.96L3048.7 863.79H3048.6C3048.35 863.39 3048.11 862.98 3047.87 862.56C3043.68 855.314 3040.87 847.357 3039.58 839.09L3048.83 836.87L3049.92 815.39L3040.37 812.2C3042 804.718 3044.88 797.564 3048.89 791.04L3058.68 797.32L3072 781.89L3066.77 772.42C3073.52 767.888 3081.25 765.026 3089.33 764.07L3091.4 776.83L3110.27 777.83L3113.27 767.25C3114.98 766.49 3125.27 773.44 3130.27 778.12L3124.18 787.69L3136.79 804.2L3144.94 799.36C3147.46 805.279 3149.14 811.519 3149.94 817.9L3140.19 819.92ZM3095.46 787C3088.4 786.881 3081.5 789.08 3075.81 793.26C3073.76 794.73 3071.87 796.405 3070.17 798.26C3063.29 806.096 3059.39 816.106 3059.16 826.531C3058.93 836.955 3062.38 847.127 3068.91 855.26C3075.43 863.01 3084.22 867.38 3093.68 867.57C3103.14 867.76 3112.11 863.75 3118.96 856.27C3125.84 848.436 3129.74 838.426 3129.98 828C3130.21 817.574 3126.75 807.4 3120.22 799.27C3119.56 798.48 3118.87 797.73 3118.16 797.01C3112.2 790.822 3104.05 787.226 3095.46 787Z" fill="white"/>
<path d="M4492.43 2079.23H4292.66C4287.38 2079.23 4282.16 2078.19 4277.29 2076.17C4272.41 2074.16 4267.98 2071.2 4264.25 2067.47C4260.52 2063.74 4257.56 2059.31 4255.54 2054.43C4253.53 2049.56 4252.49 2044.34 4252.49 2039.06V1864.72C4252.49 1859.44 4253.53 1854.22 4255.54 1849.34C4257.56 1844.47 4260.52 1840.04 4264.25 1836.31C4267.98 1832.58 4272.41 1829.62 4277.29 1827.6C4282.16 1825.58 4287.38 1824.54 4292.66 1824.54H4492.43C4503.09 1824.54 4513.31 1828.77 4520.84 1836.31C4528.38 1843.84 4532.61 1854.06 4532.61 1864.72V2039.06C4532.61 2044.34 4531.57 2049.56 4529.55 2054.43C4527.53 2059.31 4524.57 2063.74 4520.84 2067.47C4517.11 2071.2 4512.68 2074.16 4507.81 2076.18C4502.93 2078.19 4497.71 2079.23 4492.43 2079.23Z" fill="#DEE4FC"/>
<path d="M4466.05 1944.61V2029.07C4466 2033.28 4464.27 2037.3 4461.26 2040.24C4458.24 2043.19 4454.18 2044.81 4449.97 2044.76H4335.12C4333.03 2044.79 4330.96 2044.4 4329.03 2043.62C4327.09 2042.85 4325.33 2041.7 4323.83 2040.24C4322.34 2038.79 4321.15 2037.05 4320.33 2035.13C4319.51 2033.22 4319.07 2031.16 4319.05 2029.07V1944.61C4319.07 1942.52 4319.51 1940.46 4320.33 1938.55C4321.15 1936.63 4322.34 1934.89 4323.83 1933.44C4325.33 1931.98 4327.09 1930.83 4329.03 1930.06C4330.96 1929.28 4333.03 1928.89 4335.12 1928.92H4450C4454.21 1928.88 4458.26 1930.51 4461.27 1933.45C4464.28 1936.39 4466 1940.4 4466.05 1944.61Z" fill="white"/>
<path d="M4425.63 1873.85C4421.45 1869.22 4416.35 1865.5 4410.65 1862.95C4404.96 1860.4 4398.79 1859.06 4392.55 1859.02C4366.7 1859.02 4345.75 1881.69 4345.75 1909.65V1928.92H4356V1909.65C4356 1887.87 4372.39 1870.14 4392.53 1870.14C4412.67 1870.14 4429.05 1887.87 4429.05 1909.65V1928.92H4439.32V1909.65C4439.42 1896.42 4434.53 1883.64 4425.63 1873.85Z" fill="white"/>
<path d="M4405.93 1977.4C4405.93 1975.13 4405.35 1972.9 4404.25 1970.92C4403.15 1968.93 4401.57 1967.26 4399.64 1966.06C4397.72 1964.86 4395.52 1964.16 4393.26 1964.04C4390.99 1963.92 4388.74 1964.38 4386.7 1965.37C4384.66 1966.37 4382.9 1967.86 4381.6 1969.72C4380.3 1971.57 4379.49 1973.73 4379.25 1975.99C4379 1978.24 4379.34 1980.52 4380.22 1982.61C4381.11 1984.7 4382.51 1986.53 4384.29 1987.93V2005C4384.29 2006.24 4384.79 2007.42 4385.66 2008.3C4386.54 2009.17 4387.72 2009.67 4388.96 2009.67H4396.13C4397.37 2009.67 4398.56 2009.18 4399.43 2008.3C4400.31 2007.43 4400.8 2006.24 4400.8 2005V1987.94C4402.4 1986.69 4403.69 1985.09 4404.58 1983.26C4405.47 1981.44 4405.93 1979.43 4405.93 1977.4Z" fill="#ACBCF8"/>
<path d="M815.43 2705.23H615.66C610.385 2705.23 605.161 2704.19 600.286 2702.17C595.412 2700.16 590.983 2697.2 587.253 2693.47C583.522 2689.74 580.564 2685.31 578.545 2680.43C576.527 2675.56 575.489 2670.34 575.49 2665.06V2490.72C575.489 2485.44 576.527 2480.22 578.545 2475.34C580.563 2470.47 583.522 2466.04 587.252 2462.31C590.983 2458.58 595.411 2455.62 600.286 2453.6C605.16 2451.58 610.384 2450.54 615.66 2450.54H815.43C826.087 2450.54 836.307 2454.77 843.842 2462.31C851.377 2469.84 855.61 2480.06 855.61 2490.72V2665.06C855.61 2670.34 854.571 2675.56 852.552 2680.43C850.532 2685.31 847.572 2689.74 843.841 2693.47C840.11 2697.2 835.681 2700.16 830.806 2702.18C825.931 2704.19 820.706 2705.23 815.43 2705.23Z" fill="#DEE4FC"/>
<path d="M824.52 2581.61C824.52 2581.98 824.52 2582.36 824.52 2582.73C823.7 2599.73 811.52 2612.9 797.06 2612.9H634.25C619.43 2612.9 607.08 2599.2 606.57 2581.78C606.57 2581.37 606.57 2580.95 606.57 2580.53C606.28 2550.53 627.34 2525.48 652.84 2525.46C658.283 2525.46 663.67 2526.56 668.67 2528.71C678.6 2508.08 696.53 2494.3 716.99 2494.3C739.08 2494.3 758.2 2510.3 767.52 2533.73C772.292 2531.57 777.473 2530.46 782.71 2530.48C806.51 2530.6 825.33 2553.62 824.52 2581.61Z" fill="white"/>
<path d="M745.33 2587.77L715.72 2528.3L686.11 2587.77H707.14V2661.48H724.52V2587.77H745.33Z" fill="#ACBCF8"/>
<path d="M4492.43 2079.23H4292.66C4287.38 2079.23 4282.16 2078.19 4277.29 2076.17C4272.41 2074.16 4267.98 2071.2 4264.25 2067.47C4260.52 2063.74 4257.56 2059.31 4255.54 2054.43C4253.53 2049.56 4252.49 2044.34 4252.49 2039.06V1864.72C4252.49 1859.44 4253.53 1854.22 4255.54 1849.34C4257.56 1844.47 4260.52 1840.04 4264.25 1836.31C4267.98 1832.58 4272.41 1829.62 4277.29 1827.6C4282.16 1825.58 4287.38 1824.54 4292.66 1824.54H4492.43C4503.09 1824.54 4513.31 1828.77 4520.84 1836.31C4528.38 1843.84 4532.61 1854.06 4532.61 1864.72V2039.06C4532.61 2044.34 4531.57 2049.56 4529.55 2054.43C4527.53 2059.31 4524.57 2063.74 4520.84 2067.47C4517.11 2071.2 4512.68 2074.16 4507.81 2076.18C4502.93 2078.19 4497.71 2079.23 4492.43 2079.23Z" fill="#DEE4FC"/>
<path d="M4360 1893.28V1878C4360 1874.69 4357.69 1872 4354.85 1872H4301.1C4298.26 1872 4295.95 1874.68 4295.95 1878V2031.8H4465.31V1910.53C4465.31 1904.46 4461.08 1899.53 4455.86 1899.53H4365.37C4362.36 1899.54 4360 1896.74 4360 1893.28Z" fill="white"/>
<path d="M4465.26 2031.8H4295.95L4301.03 1904.38H4470.35L4465.26 2031.8Z" fill="#D3DCEF"/>
<path d="M4465.26 2031.8H4295.95L4306.09 1908.38H4475.41L4465.26 2031.8Z" fill="#EEF2FA"/>
<path d="M4465.26 2031.8H4295.95L4310.81 1912.74H4480.13L4465.26 2031.8Z" fill="#D3DCEF"/>
<path d="M4465.26 2031.8H4295.95L4314.94 1915.02H4484.25L4465.26 2031.8Z" fill="#F4F6FC"/>
<path d="M4295.86 2031.8H4465.21L4489 1926.58C4490.2 1921.27 4486.75 1916.07 4482 1916.07H4327.57C4324.3 1916.07 4321.43 1918.64 4320.57 1922.32L4295.86 2031.8Z" fill="white"/>
<path opacity="0.15" d="M4421.96 2028.12L4427.17 2007.35H4467.64L4462.43 2028.12H4421.96Z" fill="black"/>
</g>
<defs>
<clipPath id="clip0_2_520">
<rect width="5000" height="4000" fill="white"/>
</clipPath>
</defs>
</svg>
